{"id": "T0", "fps": {"num": 30, "den": 1}, "width": 1280, "height": 720, "sample_rate": 44100, "channels": 2, "channel_layout": 3, "settings": {}, "clips": [{"alpha": {"Points": [{"co": {"X": 1, "Y": 1}, "interpolation": 2}]}, "anchor": 0, "channel_filter": {"Points": [{"co": {"X": 1, "Y": -1}, "interpolation": 2}]}, "channel_mapping": {"Points": [{"co": {"X": 1, "Y": -1}, "interpolation": 2}]}, "crop_height": {"Points": [{"co": {"X": 1, "Y": -1}, "interpolation": 2}]}, "crop_width": {"Points": [{"co": {"X": 1, "Y": -1}, "interpolation": 2}]}, "crop_x": {"Points": [{"co": {"X": 1, "Y": 0}, "interpolation": 2}]}, "crop_y": {"Points": [{"co": {"X": 1, "Y": 0}, "interpolation": 2}]}, "display": 0, "duration": 12.5, "effects": [], "end": 12.5, "gravity": 4, "has_audio": {"Points": [{"co": {"X": 1, "Y": -1}, "interpolation": 2}]}, "has_video": {"Points": [{"co": {"X": 1, "Y": -1}, "interpolation": 2}]}, "id": "1YFRNRR7VC", "layer": 3, "location_x": {"Points": [{"co": {"X": 1, "Y": 0}, "interpolation": 2}]}, "location_y": {"Points": [{"co": {"X": 1, "Y": 0}, "interpolation": 2}]}, "mixing": 0, "perspective_c1_x": {"Points": [{"co": {"X": 1, "Y": -1}, "interpolation": 2}]}, "perspective_c1_y": {"Points": [{"co": {"X": 1, "Y": -1}, "interpolation": 2}]}, "perspective_c2_x": {"Points": [{"co": {"X": 1, "Y": -1}, "interpolation": 2}]}, "perspective_c2_y": {"Points": [{"co": {"X": 1, "Y": -1}, "interpolation": 2}]}, "perspective_c3_x": {"Points": [{"co": {"X": 1, "Y": -1}, "interpolation": 2}]}, "perspective_c3_y": {"Points": [{"co": {"X": 1, "Y": -1}, "interpolation": 2}]}, "perspective_c4_x": {"Points": [{"co": {"X": 1, "Y": -1}, "interpolation": 2}]}, "perspective_c4_y": {"Points": [{"co": {"X": 1, "Y": -1}, "interpolation": 2}]}, "position": 0, "reader": {"acodec": "", "audio_bit_rate": 0, "audio_stream_index": -1, "audio_timebase": {"den": 1, "num": 1}, "channel_layout": 4, "channels": 0, "display_ratio": {"den": 1, "num": 4}, "duration": 12.5, "file_size": "921260", "fps": {"den": 1, "num": 8}, "has_audio": false, "has_single_image": false, "has_video": true, "height": 150, "interlaced_frame": false, "metadata": {}, "path": "potato_templates_and_test_z.avi", "pixel_format": 12, "pixel_ratio": {"den": 1, "num": 1}, "sample_rate": 0, "top_field_first": true, "type": "FFmpegReader", "vcodec": "mjpeg", "video_bit_rate": 73700, "video_length": "100", "video_stream_index": 0, "video_timebase": {"den": 8, "num": 1}, "width": 600}, "rotation": {"Points": [{"co": {"X": 1, "Y": 0}, "interpolation": 2}]}, "scale": 1, "scale_x": {"Points": [{"co": {"X": 1, "Y": 1}, "interpolation": 2}]}, "scale_y": {"Points": [{"co": {"X": 1, "Y": 1}, "interpolation": 2}]}, "shear_x": {"Points": [{"co": {"X": 1, "Y": 0}, "interpolation": 2}]}, "shear_y": {"Points": [{"co": {"X": 1, "Y": 0}, "interpolation": 2}]}, "start": 0, "time": {"Points": [{"co": {"X": 1, "Y": 1}, "interpolation": 2}]}, "volume": {"Points": [{"co": {"X": 1, "Y": 1}, "interpolation": 2}]}, "wave_color": {"alpha": {"Points": [{"co": {"X": 1, "Y": 255}, "handle_left": {"X": 0.5, "Y": 1}, "handle_right": {"X": 0.5, "Y": 0}, "handle_type": 0, "interpolation": 0}]}, "blue": {"Points": [{"co": {"X": 1, "Y": 255}, "handle_left": {"X": 0.5, "Y": 1}, "handle_right": {"X": 0.5, "Y": 0}, "handle_type": 0, "interpolation": 0}]}, "green": {"Points": [{"co": {"X": 1, "Y": 123}, "handle_left": {"X": 0.5, "Y": 1}, "handle_right": {"X": 0.5, "Y": 0}, "handle_type": 0, "interpolation": 0}]}, "red": {"Points": [{"co": {"X": 1, "Y": 0}, "handle_left": {"X": 0.5, "Y": 1}, "handle_right": {"X": 0.5, "Y": 0}, "handle_type": 0, "interpolation": 0}]}}, "waveform": false, "file_id": "ZZ42TIZ5GB", "title": "potato_templates_and_test_z.avi", "image": "../../../../../.openshot_qt/thumbnail/ZZ42TIZ5GB.png"}, {"alpha": {"Points": [{"co": {"X": 1, "Y": 1}, "interpolation": 2}]}, "anchor": 0, "channel_filter": {"Points": [{"co": {"X": 1, "Y": -1}, "interpolation": 2}]}, "channel_mapping": {"Points": [{"co": {"X": 1, "Y": -1}, "interpolation": 2}]}, "crop_height": {"Points": [{"co": {"X": 1, "Y": -1}, "interpolation": 2}]}, "crop_width": {"Points": [{"co": {"X": 1, "Y": -1}, "interpolation": 2}]}, "crop_x": {"Points": [{"co": {"X": 1, "Y": 0}, "interpolation": 2}]}, "crop_y": {"Points": [{"co": {"X": 1, "Y": 0}, "interpolation": 2}]}, "display": 0, "duration": 86400.0, "effects": [], "end": 12.566666666666666, "gravity": 4, "has_audio": {"Points": [{"co": {"X": 1, "Y": -1}, "interpolation": 2}]}, "has_video": {"Points": [{"co": {"X": 1, "Y": -1}, "interpolation": 2}]}, "id": "6KMZQLFB2P", "layer": 4, "location_x": {"Points": [{"co": {"X": 1, "Y": 0}, "interpolation": 2}]}, "location_y": {"Points": [{"co": {"X": 1, "Y": 0}, "interpolation": 2}]}, "mixing": 0, "perspective_c1_x": {"Points": [{"co": {"X": 1, "Y": -1}, "interpolation": 2}]}, "perspective_c1_y": {"Points": [{"co": {"X": 1, "Y": -1}, "interpolation": 2}]}, "perspective_c2_x": {"Points": [{"co": {"X": 1, "Y": -1}, "interpolation": 2}]}, "perspective_c2_y": {"Points": [{"co": {"X": 1, "Y": -1}, "interpolation": 2}]}, "perspective_c3_x": {"Points": [{"co": {"X": 1, "Y": -1}, "interpolation": 2}]}, "perspective_c3_y": {"Points": [{"co": {"X": 1, "Y": -1}, "interpolation": 2}]}, "perspective_c4_x": {"Points": [{"co": {"X": 1, "Y": -1}, "interpolation": 2}]}, "perspective_c4_y": {"Points": [{"co": {"X": 1, "Y": -1}, "interpolation": 2}]}, "position": 0, "reader": {"acodec": "", "audio_bit_rate": 0, "audio_stream_index": -1, "audio_timebase": {"den": 1, "num": 1}, "channel_layout": 4, "channels": 0, "display_ratio": {"den": 9, "num": 16}, "duration": 86400.0, "file_size": "8294400", "fps": {"den": 1, "num": 30}, "has_audio": false, "has_single_image": true, "has_video": true, "height": 1080, "interlaced_frame": false, "metadata": {}, "path": "templates_test_title.svg", "pixel_format": -1, "pixel_ratio": {"den": 1, "num": 1}, "sample_rate": 0, "top_field_first": true, "type": "QtImageReader", "vcodec": "", "video_bit_rate": 0, "video_length": "2592000", "video_stream_index": -1, "video_timebase": {"den": 30, "num": 1}, "width": 1920}, "rotation": {"Points": [{"co": {"X": 1, "Y": 0}, "interpolation": 2}]}, "scale": 1, "scale_x": {"Points": [{"co": {"X": 1, "Y": 1}, "interpolation": 2}]}, "scale_y": {"Points": [{"co": {"X": 1, "Y": 1}, "interpolation": 2}]}, "shear_x": {"Points": [{"co": {"X": 1, "Y": 0}, "interpolation": 2}]}, "shear_y": {"Points": [{"co": {"X": 1, "Y": 0}, "interpolation": 2}]}, "start": 0, "time": {"Points": [{"co": {"X": 1, "Y": 1}, "interpolation": 2}]}, "volume": {"Points": [{"co": {"X": 1, "Y": 1}, "interpolation": 2}]}, "wave_color": {"alpha": {"Points": [{"co": {"X": 1, "Y": 255}, "handle_left": {"X": 0.5, "Y": 1}, "handle_right": {"X": 0.5, "Y": 0}, "handle_type": 0, "interpolation": 0}]}, "blue": {"Points": [{"co": {"X": 1, "Y": 255}, "handle_left": {"X": 0.5, "Y": 1}, "handle_right": {"X": 0.5, "Y": 0}, "handle_type": 0, "interpolation": 0}]}, "green": {"Points": [{"co": {"X": 1, "Y": 123}, "handle_left": {"X": 0.5, "Y": 1}, "handle_right": {"X": 0.5, "Y": 0}, "handle_type": 0, "interpolation": 0}]}, "red": {"Points": [{"co": {"X": 1, "Y": 0}, "handle_left": {"X": 0.5, "Y": 1}, "handle_right": {"X": 0.5, "Y": 0}, "handle_type": 0, "interpolation": 0}]}}, "waveform": false, "file_id": "DD4MNHBLLW", "title": "templates_test_title.svg", "image": "../../../../../.openshot_qt/thumbnail/DD4MNHBLLW.png"}], "effects": [], "export_path": "", "import_path": "/home/preeti/Documents/DT/TCI_few_views/videos/potato", "files": [{"acodec": "", "audio_bit_rate": 0, "audio_stream_index": -1, "audio_timebase": {"den": 1, "num": 1}, "channel_layout": 4, "channels": 0, "display_ratio": {"den": 1, "num": 4}, "duration": 12.5, "file_size": "921260", "fps": {"den": 1, "num": 8}, "has_audio": false, "has_single_image": false, "has_video": true, "height": 150, "interlaced_frame": false, "metadata": {}, "path": "potato_templates_and_test_z.avi", "pixel_format": 12, "pixel_ratio": {"den": 1, "num": 1}, "sample_rate": 0, "top_field_first": true, "type": "FFmpegReader", "vcodec": "mjpeg", "video_bit_rate": 73700, "video_length": "100", "video_stream_index": 0, "video_timebase": {"den": 8, "num": 1}, "width": 600, "media_type": "video", "id": "ZZ42TIZ5GB"}, {"acodec": "", "audio_bit_rate": 0, "audio_stream_index": -1, "audio_timebase": {"den": 1, "num": 1}, "channel_layout": 4, "channels": 0, "display_ratio": {"den": 9, "num": 16}, "duration": 86400, "file_size": "8294400", "fps": {"den": 1, "num": 30}, "has_audio": false, "has_single_image": true, "has_video": true, "height": 1080, "interlaced_frame": false, "metadata": {}, "path": "templates_test_title.svg", "pixel_format": -1, "pixel_ratio": {"den": 1, "num": 1}, "sample_rate": 0, "top_field_first": true, "type": "QtImageReader", "vcodec": "", "video_bit_rate": 0, "video_length": "2592000", "video_stream_index": -1, "video_timebase": {"den": 30, "num": 1}, "width": 1920, "media_type": "image", "id": "DD4MNHBLLW"}], "duration": 300, "scale": 15, "tick_pixels": 100, "playhead_position": 0, "profile": "HD 720p 30 fps", "layers": [{"id": "L0", "label": "", "number": 0, "y": 0, "lock": false}, {"id": "L1", "label": "", "number": 1, "y": 0, "lock": false}, {"id": "L2", "label": "", "number": 2, "y": 0, "lock": false}, {"id": "L3", "label": "", "number": 3, "y": 0, "lock": false}, {"id": "L4", "label": "", "number": 4, "y": 0, "lock": false}], "markers": [], "progress": [], "history": {"undo": [{"type": "insert", "key": ["clips"], "value": {"alpha": {"Points": [{"co": {"X": 1, "Y": 1}, "interpolation": 2}]}, "anchor": 0, "channel_filter": {"Points": [{"co": {"X": 1, "Y": -1}, "interpolation": 2}]}, "channel_mapping": {"Points": [{"co": {"X": 1, "Y": -1}, "interpolation": 2}]}, "crop_height": {"Points": [{"co": {"X": 1, "Y": -1}, "interpolation": 2}]}, "crop_width": {"Points": [{"co": {"X": 1, "Y": -1}, "interpolation": 2}]}, "crop_x": {"Points": [{"co": {"X": 1, "Y": 0}, "interpolation": 2}]}, "crop_y": {"Points": [{"co": {"X": 1, "Y": 0}, "interpolation": 2}]}, "display": 0, "duration": 12.5, "effects": [], "end": 12.5, "gravity": 4, "has_audio": {"Points": [{"co": {"X": 1, "Y": -1}, "interpolation": 2}]}, "has_video": {"Points": [{"co": {"X": 1, "Y": -1}, "interpolation": 2}]}, "id": "NGVZL6GQHL", "layer": 4, "location_x": {"Points": [{"co": {"X": 1, "Y": 0}, "interpolation": 2}]}, "location_y": {"Points": [{"co": {"X": 1, "Y": 0}, "interpolation": 2}]}, "mixing": 0, "perspective_c1_x": {"Points": [{"co": {"X": 1, "Y": -1}, "interpolation": 2}]}, "perspective_c1_y": {"Points": [{"co": {"X": 1, "Y": -1}, "interpolation": 2}]}, "perspective_c2_x": {"Points": [{"co": {"X": 1, "Y": -1}, "interpolation": 2}]}, "perspective_c2_y": {"Points": [{"co": {"X": 1, "Y": -1}, "interpolation": 2}]}, "perspective_c3_x": {"Points": [{"co": {"X": 1, "Y": -1}, "interpolation": 2}]}, "perspective_c3_y": {"Points": [{"co": {"X": 1, "Y": -1}, "interpolation": 2}]}, "perspective_c4_x": {"Points": [{"co": {"X": 1, "Y": -1}, "interpolation": 2}]}, "perspective_c4_y": {"Points": [{"co": {"X": 1, "Y": -1}, "interpolation": 2}]}, "position": 4.16, "reader": {"acodec": "", "audio_bit_rate": 0, "audio_stream_index": -1, "audio_timebase": {"den": 1, "num": 1}, "channel_layout": 4, "channels": 0, "display_ratio": {"den": 1, "num": 4}, "duration": 12.5, "file_size": "921260", "fps": {"den": 1, "num": 8}, "has_audio": false, "has_single_image": false, "has_video": true, "height": 150, "interlaced_frame": false, "metadata": {}, "path": "/home/preeti/Documents/DT/TCI_few_views/videos/potato/potato_templates_and_test_z.avi", "pixel_format": 12, "pixel_ratio": {"den": 1, "num": 1}, "sample_rate": 0, "top_field_first": true, "type": "FFmpegReader", "vcodec": "mjpeg", "video_bit_rate": 73700, "video_length": "100", "video_stream_index": 0, "video_timebase": {"den": 8, "num": 1}, "width": 600}, "rotation": {"Points": [{"co": {"X": 1, "Y": 0}, "interpolation": 2}]}, "scale": 1, "scale_x": {"Points": [{"co": {"X": 1, "Y": 1}, "interpolation": 2}]}, "scale_y": {"Points": [{"co": {"X": 1, "Y": 1}, "interpolation": 2}]}, "shear_x": {"Points": [{"co": {"X": 1, "Y": 0}, "interpolation": 2}]}, "shear_y": {"Points": [{"co": {"X": 1, "Y": 0}, "interpolation": 2}]}, "start": 0, "time": {"Points": [{"co": {"X": 1, "Y": 1}, "interpolation": 2}]}, "volume": {"Points": [{"co": {"X": 1, "Y": 1}, "interpolation": 2}]}, "wave_color": {"alpha": {"Points": [{"co": {"X": 1, "Y": 255}, "handle_left": {"X": 0.5, "Y": 1}, "handle_right": {"X": 0.5, "Y": 0}, "handle_type": 0, "interpolation": 0}]}, "blue": {"Points": [{"co": {"X": 1, "Y": 255}, "handle_left": {"X": 0.5, "Y": 1}, "handle_right": {"X": 0.5, "Y": 0}, "handle_type": 0, "interpolation": 0}]}, "green": {"Points": [{"co": {"X": 1, "Y": 123}, "handle_left": {"X": 0.5, "Y": 1}, "handle_right": {"X": 0.5, "Y": 0}, "handle_type": 0, "interpolation": 0}]}, "red": {"Points": [{"co": {"X": 1, "Y": 0}, "handle_left": {"X": 0.5, "Y": 1}, "handle_right": {"X": 0.5, "Y": 0}, "handle_type": 0, "interpolation": 0}]}}, "waveform": false, "file_id": "ZZ42TIZ5GB", "title": "potato_templates_and_test_z.avi", "image": "/home/preeti/.openshot_qt/thumbnail/ZZ42TIZ5GB.png"}, "partial": false, "old_values": []}, {"type": "delete", "key": ["clips", {"id": "NGVZL6GQHL"}], "value": null, "partial": false, "old_values": {"alpha": {"Points": [{"co": {"X": 1, "Y": 1}, "interpolation": 2}]}, "anchor": 0, "channel_filter": {"Points": [{"co": {"X": 1, "Y": -1}, "interpolation": 2}]}, "channel_mapping": {"Points": [{"co": {"X": 1, "Y": -1}, "interpolation": 2}]}, "crop_height": {"Points": [{"co": {"X": 1, "Y": -1}, "interpolation": 2}]}, "crop_width": {"Points": [{"co": {"X": 1, "Y": -1}, "interpolation": 2}]}, "crop_x": {"Points": [{"co": {"X": 1, "Y": 0}, "interpolation": 2}]}, "crop_y": {"Points": [{"co": {"X": 1, "Y": 0}, "interpolation": 2}]}, "display": 0, "duration": 12.5, "effects": [], "end": 12.5, "gravity": 4, "has_audio": {"Points": [{"co": {"X": 1, "Y": -1}, "interpolation": 2}]}, "has_video": {"Points": [{"co": {"X": 1, "Y": -1}, "interpolation": 2}]}, "id": "NGVZL6GQHL", "layer": 4, "location_x": {"Points": [{"co": {"X": 1, "Y": 0}, "interpolation": 2}]}, "location_y": {"Points": [{"co": {"X": 1, "Y": 0}, "interpolation": 2}]}, "mixing": 0, "perspective_c1_x": {"Points": [{"co": {"X": 1, "Y": -1}, "interpolation": 2}]}, "perspective_c1_y": {"Points": [{"co": {"X": 1, "Y": -1}, "interpolation": 2}]}, "perspective_c2_x": {"Points": [{"co": {"X": 1, "Y": -1}, "interpolation": 2}]}, "perspective_c2_y": {"Points": [{"co": {"X": 1, "Y": -1}, "interpolation": 2}]}, "perspective_c3_x": {"Points": [{"co": {"X": 1, "Y": -1}, "interpolation": 2}]}, "perspective_c3_y": {"Points": [{"co": {"X": 1, "Y": -1}, "interpolation": 2}]}, "perspective_c4_x": {"Points": [{"co": {"X": 1, "Y": -1}, "interpolation": 2}]}, "perspective_c4_y": {"Points": [{"co": {"X": 1, "Y": -1}, "interpolation": 2}]}, "position": 4.16, "reader": {"acodec": "", "audio_bit_rate": 0, "audio_stream_index": -1, "audio_timebase": {"den": 1, "num": 1}, "channel_layout": 4, "channels": 0, "display_ratio": {"den": 1, "num": 4}, "duration": 12.5, "file_size": "921260", "fps": {"den": 1, "num": 8}, "has_audio": false, "has_single_image": false, "has_video": true, "height": 150, "interlaced_frame": false, "metadata": {}, "path": "/home/preeti/Documents/DT/TCI_few_views/videos/potato/potato_templates_and_test_z.avi", "pixel_format": 12, "pixel_ratio": {"den": 1, "num": 1}, "sample_rate": 0, "top_field_first": true, "type": "FFmpegReader", "vcodec": "mjpeg", "video_bit_rate": 73700, "video_length": "100", "video_stream_index": 0, "video_timebase": {"den": 8, "num": 1}, "width": 600}, "rotation": {"Points": [{"co": {"X": 1, "Y": 0}, "interpolation": 2}]}, "scale": 1, "scale_x": {"Points": [{"co": {"X": 1, "Y": 1}, "interpolation": 2}]}, "scale_y": {"Points": [{"co": {"X": 1, "Y": 1}, "interpolation": 2}]}, "shear_x": {"Points": [{"co": {"X": 1, "Y": 0}, "interpolation": 2}]}, "shear_y": {"Points": [{"co": {"X": 1, "Y": 0}, "interpolation": 2}]}, "start": 0, "time": {"Points": [{"co": {"X": 1, "Y": 1}, "interpolation": 2}]}, "volume": {"Points": [{"co": {"X": 1, "Y": 1}, "interpolation": 2}]}, "wave_color": {"alpha": {"Points": [{"co": {"X": 1, "Y": 255}, "handle_left": {"X": 0.5, "Y": 1}, "handle_right": {"X": 0.5, "Y": 0}, "handle_type": 0, "interpolation": 0}]}, "blue": {"Points": [{"co": {"X": 1, "Y": 255}, "handle_left": {"X": 0.5, "Y": 1}, "handle_right": {"X": 0.5, "Y": 0}, "handle_type": 0, "interpolation": 0}]}, "green": {"Points": [{"co": {"X": 1, "Y": 123}, "handle_left": {"X": 0.5, "Y": 1}, "handle_right": {"X": 0.5, "Y": 0}, "handle_type": 0, "interpolation": 0}]}, "red": {"Points": [{"co": {"X": 1, "Y": 0}, "handle_left": {"X": 0.5, "Y": 1}, "handle_right": {"X": 0.5, "Y": 0}, "handle_type": 0, "interpolation": 0}]}}, "waveform": false, "file_id": "ZZ42TIZ5GB", "title": "potato_templates_and_test_z.avi", "image": "/home/preeti/.openshot_qt/thumbnail/ZZ42TIZ5GB.png"}}, {"type": "insert", "key": ["clips"], "value": {"alpha": {"Points": [{"co": {"X": 1, "Y": 1}, "interpolation": 2}]}, "anchor": 0, "channel_filter": {"Points": [{"co": {"X": 1, "Y": -1}, "interpolation": 2}]}, "channel_mapping": {"Points": [{"co": {"X": 1, "Y": -1}, "interpolation": 2}]}, "crop_height": {"Points": [{"co": {"X": 1, "Y": -1}, "interpolation": 2}]}, "crop_width": {"Points": [{"co": {"X": 1, "Y": -1}, "interpolation": 2}]}, "crop_x": {"Points": [{"co": {"X": 1, "Y": 0}, "interpolation": 2}]}, "crop_y": {"Points": [{"co": {"X": 1, "Y": 0}, "interpolation": 2}]}, "display": 0, "duration": 12.5, "effects": [], "end": 12.5, "gravity": 4, "has_audio": {"Points": [{"co": {"X": 1, "Y": -1}, "interpolation": 2}]}, "has_video": {"Points": [{"co": {"X": 1, "Y": -1}, "interpolation": 2}]}, "id": "1YFRNRR7VC", "layer": 3, "location_x": {"Points": [{"co": {"X": 1, "Y": 0}, "interpolation": 2}]}, "location_y": {"Points": [{"co": {"X": 1, "Y": 0}, "interpolation": 2}]}, "mixing": 0, "perspective_c1_x": {"Points": [{"co": {"X": 1, "Y": -1}, "interpolation": 2}]}, "perspective_c1_y": {"Points": [{"co": {"X": 1, "Y": -1}, "interpolation": 2}]}, "perspective_c2_x": {"Points": [{"co": {"X": 1, "Y": -1}, "interpolation": 2}]}, "perspective_c2_y": {"Points": [{"co": {"X": 1, "Y": -1}, "interpolation": 2}]}, "perspective_c3_x": {"Points": [{"co": {"X": 1, "Y": -1}, "interpolation": 2}]}, "perspective_c3_y": {"Points": [{"co": {"X": 1, "Y": -1}, "interpolation": 2}]}, "perspective_c4_x": {"Points": [{"co": {"X": 1, "Y": -1}, "interpolation": 2}]}, "perspective_c4_y": {"Points": [{"co": {"X": 1, "Y": -1}, "interpolation": 2}]}, "position": 0, "reader": {"acodec": "", "audio_bit_rate": 0, "audio_stream_index": -1, "audio_timebase": {"den": 1, "num": 1}, "channel_layout": 4, "channels": 0, "display_ratio": {"den": 1, "num": 4}, "duration": 12.5, "file_size": "921260", "fps": {"den": 1, "num": 8}, "has_audio": false, "has_single_image": false, "has_video": true, "height": 150, "interlaced_frame": false, "metadata": {}, "path": "/home/preeti/Documents/DT/TCI_few_views/videos/potato/potato_templates_and_test_z.avi", "pixel_format": 12, "pixel_ratio": {"den": 1, "num": 1}, "sample_rate": 0, "top_field_first": true, "type": "FFmpegReader", "vcodec": "mjpeg", "video_bit_rate": 73700, "video_length": "100", "video_stream_index": 0, "video_timebase": {"den": 8, "num": 1}, "width": 600}, "rotation": {"Points": [{"co": {"X": 1, "Y": 0}, "interpolation": 2}]}, "scale": 1, "scale_x": {"Points": [{"co": {"X": 1, "Y": 1}, "interpolation": 2}]}, "scale_y": {"Points": [{"co": {"X": 1, "Y": 1}, "interpolation": 2}]}, "shear_x": {"Points": [{"co": {"X": 1, "Y": 0}, "interpolation": 2}]}, "shear_y": {"Points": [{"co": {"X": 1, "Y": 0}, "interpolation": 2}]}, "start": 0, "time": {"Points": [{"co": {"X": 1, "Y": 1}, "interpolation": 2}]}, "volume": {"Points": [{"co": {"X": 1, "Y": 1}, "interpolation": 2}]}, "wave_color": {"alpha": {"Points": [{"co": {"X": 1, "Y": 255}, "handle_left": {"X": 0.5, "Y": 1}, "handle_right": {"X": 0.5, "Y": 0}, "handle_type": 0, "interpolation": 0}]}, "blue": {"Points": [{"co": {"X": 1, "Y": 255}, "handle_left": {"X": 0.5, "Y": 1}, "handle_right": {"X": 0.5, "Y": 0}, "handle_type": 0, "interpolation": 0}]}, "green": {"Points": [{"co": {"X": 1, "Y": 123}, "handle_left": {"X": 0.5, "Y": 1}, "handle_right": {"X": 0.5, "Y": 0}, "handle_type": 0, "interpolation": 0}]}, "red": {"Points": [{"co": {"X": 1, "Y": 0}, "handle_left": {"X": 0.5, "Y": 1}, "handle_right": {"X": 0.5, "Y": 0}, "handle_type": 0, "interpolation": 0}]}}, "waveform": false, "file_id": "ZZ42TIZ5GB", "title": "potato_templates_and_test_z.avi", "image": "/home/preeti/.openshot_qt/thumbnail/ZZ42TIZ5GB.png"}, "partial": false, "old_values": []}, {"type": "update", "key": ["clips", {"id": "1YFRNRR7VC"}], "value": {"id": "1YFRNRR7VC", "layer": 3, "position": 0, "image": "/home/preeti/.openshot_qt/thumbnail/ZZ42TIZ5GB.png", "start": 0, "end": 12.5}, "partial": false, "old_values": {"alpha": {"Points": [{"co": {"X": 1, "Y": 1}, "interpolation": 2}]}, "anchor": 0, "channel_filter": {"Points": [{"co": {"X": 1, "Y": -1}, "interpolation": 2}]}, "channel_mapping": {"Points": [{"co": {"X": 1, "Y": -1}, "interpolation": 2}]}, "crop_height": {"Points": [{"co": {"X": 1, "Y": -1}, "interpolation": 2}]}, "crop_width": {"Points": [{"co": {"X": 1, "Y": -1}, "interpolation": 2}]}, "crop_x": {"Points": [{"co": {"X": 1, "Y": 0}, "interpolation": 2}]}, "crop_y": {"Points": [{"co": {"X": 1, "Y": 0}, "interpolation": 2}]}, "display": 0, "duration": 12.5, "effects": [], "end": 12.5, "gravity": 4, "has_audio": {"Points": [{"co": {"X": 1, "Y": -1}, "interpolation": 2}]}, "has_video": {"Points": [{"co": {"X": 1, "Y": -1}, "interpolation": 2}]}, "id": "1YFRNRR7VC", "layer": 2, "location_x": {"Points": [{"co": {"X": 1, "Y": 0}, "interpolation": 2}]}, "location_y": {"Points": [{"co": {"X": 1, "Y": 0}, "interpolation": 2}]}, "mixing": 0, "perspective_c1_x": {"Points": [{"co": {"X": 1, "Y": -1}, "interpolation": 2}]}, "perspective_c1_y": {"Points": [{"co": {"X": 1, "Y": -1}, "interpolation": 2}]}, "perspective_c2_x": {"Points": [{"co": {"X": 1, "Y": -1}, "interpolation": 2}]}, "perspective_c2_y": {"Points": [{"co": {"X": 1, "Y": -1}, "interpolation": 2}]}, "perspective_c3_x": {"Points": [{"co": {"X": 1, "Y": -1}, "interpolation": 2}]}, "perspective_c3_y": {"Points": [{"co": {"X": 1, "Y": -1}, "interpolation": 2}]}, "perspective_c4_x": {"Points": [{"co": {"X": 1, "Y": -1}, "interpolation": 2}]}, "perspective_c4_y": {"Points": [{"co": {"X": 1, "Y": -1}, "interpolation": 2}]}, "position": 0.0, "reader": {"acodec": "", "audio_bit_rate": 0, "audio_stream_index": -1, "audio_timebase": {"den": 1, "num": 1}, "channel_layout": 4, "channels": 0, "display_ratio": {"den": 1, "num": 4}, "duration": 12.5, "file_size": "921260", "fps": {"den": 1, "num": 8}, "has_audio": false, "has_single_image": false, "has_video": true, "height": 150, "interlaced_frame": false, "metadata": {}, "path": "/home/preeti/Documents/DT/TCI_few_views/videos/potato/potato_templates_and_test_z.avi", "pixel_format": 12, "pixel_ratio": {"den": 1, "num": 1}, "sample_rate": 0, "top_field_first": true, "type": "FFmpegReader", "vcodec": "mjpeg", "video_bit_rate": 73700, "video_length": "100", "video_stream_index": 0, "video_timebase": {"den": 8, "num": 1}, "width": 600}, "rotation": {"Points": [{"co": {"X": 1, "Y": 0}, "interpolation": 2}]}, "scale": 1, "scale_x": {"Points": [{"co": {"X": 1, "Y": 1}, "interpolation": 2}]}, "scale_y": {"Points": [{"co": {"X": 1, "Y": 1}, "interpolation": 2}]}, "shear_x": {"Points": [{"co": {"X": 1, "Y": 0}, "interpolation": 2}]}, "shear_y": {"Points": [{"co": {"X": 1, "Y": 0}, "interpolation": 2}]}, "start": 0, "time": {"Points": [{"co": {"X": 1, "Y": 1}, "interpolation": 2}]}, "volume": {"Points": [{"co": {"X": 1, "Y": 1}, "interpolation": 2}]}, "wave_color": {"alpha": {"Points": [{"co": {"X": 1, "Y": 255}, "handle_left": {"X": 0.5, "Y": 1}, "handle_right": {"X": 0.5, "Y": 0}, "handle_type": 0, "interpolation": 0}]}, "blue": {"Points": [{"co": {"X": 1, "Y": 255}, "handle_left": {"X": 0.5, "Y": 1}, "handle_right": {"X": 0.5, "Y": 0}, "handle_type": 0, "interpolation": 0}]}, "green": {"Points": [{"co": {"X": 1, "Y": 123}, "handle_left": {"X": 0.5, "Y": 1}, "handle_right": {"X": 0.5, "Y": 0}, "handle_type": 0, "interpolation": 0}]}, "red": {"Points": [{"co": {"X": 1, "Y": 0}, "handle_left": {"X": 0.5, "Y": 1}, "handle_right": {"X": 0.5, "Y": 0}, "handle_type": 0, "interpolation": 0}]}}, "waveform": false, "file_id": "ZZ42TIZ5GB", "title": "potato_templates_and_test_z.avi", "image": "/home/preeti/.openshot_qt/thumbnail/ZZ42TIZ5GB.png"}}, {"type": "insert", "key": ["clips"], "value": {"alpha": {"Points": [{"co": {"X": 1, "Y": 1}, "interpolation": 2}]}, "anchor": 0, "channel_filter": {"Points": [{"co": {"X": 1, "Y": -1}, "interpolation": 2}]}, "channel_mapping": {"Points": [{"co": {"X": 1, "Y": -1}, "interpolation": 2}]}, "crop_height": {"Points": [{"co": {"X": 1, "Y": -1}, "interpolation": 2}]}, "crop_width": {"Points": [{"co": {"X": 1, "Y": -1}, "interpolation": 2}]}, "crop_x": {"Points": [{"co": {"X": 1, "Y": 0}, "interpolation": 2}]}, "crop_y": {"Points": [{"co": {"X": 1, "Y": 0}, "interpolation": 2}]}, "display": 0, "duration": 86400.0, "effects": [], "end": 10, "gravity": 4, "has_audio": {"Points": [{"co": {"X": 1, "Y": -1}, "interpolation": 2}]}, "has_video": {"Points": [{"co": {"X": 1, "Y": -1}, "interpolation": 2}]}, "id": "VFDISERUAF", "layer": 4, "location_x": {"Points": [{"co": {"X": 1, "Y": 0}, "interpolation": 2}]}, "location_y": {"Points": [{"co": {"X": 1, "Y": 0}, "interpolation": 2}]}, "mixing": 0, "perspective_c1_x": {"Points": [{"co": {"X": 1, "Y": -1}, "interpolation": 2}]}, "perspective_c1_y": {"Points": [{"co": {"X": 1, "Y": -1}, "interpolation": 2}]}, "perspective_c2_x": {"Points": [{"co": {"X": 1, "Y": -1}, "interpolation": 2}]}, "perspective_c2_y": {"Points": [{"co": {"X": 1, "Y": -1}, "interpolation": 2}]}, "perspective_c3_x": {"Points": [{"co": {"X": 1, "Y": -1}, "interpolation": 2}]}, "perspective_c3_y": {"Points": [{"co": {"X": 1, "Y": -1}, "interpolation": 2}]}, "perspective_c4_x": {"Points": [{"co": {"X": 1, "Y": -1}, "interpolation": 2}]}, "perspective_c4_y": {"Points": [{"co": {"X": 1, "Y": -1}, "interpolation": 2}]}, "position": 0, "reader": {"acodec": "", "audio_bit_rate": 0, "audio_stream_index": -1, "audio_timebase": {"den": 1, "num": 1}, "channel_layout": 4, "channels": 0, "display_ratio": {"den": 9, "num": 16}, "duration": 86400.0, "file_size": "8294400", "fps": {"den": 1, "num": 30}, "has_audio": false, "has_single_image": true, "has_video": true, "height": 1080, "interlaced_frame": false, "metadata": {}, "path": "/home/preeti/Documents/DT/TCI_few_views/videos/potato/templates_test_title.svg", "pixel_format": -1, "pixel_ratio": {"den": 1, "num": 1}, "sample_rate": 0, "top_field_first": true, "type": "QtImageReader", "vcodec": "", "video_bit_rate": 0, "video_length": "2592000", "video_stream_index": -1, "video_timebase": {"den": 30, "num": 1}, "width": 1920}, "rotation": {"Points": [{"co": {"X": 1, "Y": 0}, "interpolation": 2}]}, "scale": 1, "scale_x": {"Points": [{"co": {"X": 1, "Y": 1}, "interpolation": 2}]}, "scale_y": {"Points": [{"co": {"X": 1, "Y": 1}, "interpolation": 2}]}, "shear_x": {"Points": [{"co": {"X": 1, "Y": 0}, "interpolation": 2}]}, "shear_y": {"Points": [{"co": {"X": 1, "Y": 0}, "interpolation": 2}]}, "start": 0, "time": {"Points": [{"co": {"X": 1, "Y": 1}, "interpolation": 2}]}, "volume": {"Points": [{"co": {"X": 1, "Y": 1}, "interpolation": 2}]}, "wave_color": {"alpha": {"Points": [{"co": {"X": 1, "Y": 255}, "handle_left": {"X": 0.5, "Y": 1}, "handle_right": {"X": 0.5, "Y": 0}, "handle_type": 0, "interpolation": 0}]}, "blue": {"Points": [{"co": {"X": 1, "Y": 255}, "handle_left": {"X": 0.5, "Y": 1}, "handle_right": {"X": 0.5, "Y": 0}, "handle_type": 0, "interpolation": 0}]}, "green": {"Points": [{"co": {"X": 1, "Y": 123}, "handle_left": {"X": 0.5, "Y": 1}, "handle_right": {"X": 0.5, "Y": 0}, "handle_type": 0, "interpolation": 0}]}, "red": {"Points": [{"co": {"X": 1, "Y": 0}, "handle_left": {"X": 0.5, "Y": 1}, "handle_right": {"X": 0.5, "Y": 0}, "handle_type": 0, "interpolation": 0}]}}, "waveform": false, "file_id": "XDGFTQRRJ3", "title": "templates_test_title.svg", "image": "/home/preeti/.openshot_qt/thumbnail/XDGFTQRRJ3.png"}, "partial": false, "old_values": [{"alpha": {"Points": [{"co": {"X": 1, "Y": 1}, "interpolation": 2}]}, "anchor": 0, "channel_filter": {"Points": [{"co": {"X": 1, "Y": -1}, "interpolation": 2}]}, "channel_mapping": {"Points": [{"co": {"X": 1, "Y": -1}, "interpolation": 2}]}, "crop_height": {"Points": [{"co": {"X": 1, "Y": -1}, "interpolation": 2}]}, "crop_width": {"Points": [{"co": {"X": 1, "Y": -1}, "interpolation": 2}]}, "crop_x": {"Points": [{"co": {"X": 1, "Y": 0}, "interpolation": 2}]}, "crop_y": {"Points": [{"co": {"X": 1, "Y": 0}, "interpolation": 2}]}, "display": 0, "duration": 12.5, "effects": [], "end": 12.5, "gravity": 4, "has_audio": {"Points": [{"co": {"X": 1, "Y": -1}, "interpolation": 2}]}, "has_video": {"Points": [{"co": {"X": 1, "Y": -1}, "interpolation": 2}]}, "id": "1YFRNRR7VC", "layer": 3, "location_x": {"Points": [{"co": {"X": 1, "Y": 0}, "interpolation": 2}]}, "location_y": {"Points": [{"co": {"X": 1, "Y": 0}, "interpolation": 2}]}, "mixing": 0, "perspective_c1_x": {"Points": [{"co": {"X": 1, "Y": -1}, "interpolation": 2}]}, "perspective_c1_y": {"Points": [{"co": {"X": 1, "Y": -1}, "interpolation": 2}]}, "perspective_c2_x": {"Points": [{"co": {"X": 1, "Y": -1}, "interpolation": 2}]}, "perspective_c2_y": {"Points": [{"co": {"X": 1, "Y": -1}, "interpolation": 2}]}, "perspective_c3_x": {"Points": [{"co": {"X": 1, "Y": -1}, "interpolation": 2}]}, "perspective_c3_y": {"Points": [{"co": {"X": 1, "Y": -1}, "interpolation": 2}]}, "perspective_c4_x": {"Points": [{"co": {"X": 1, "Y": -1}, "interpolation": 2}]}, "perspective_c4_y": {"Points": [{"co": {"X": 1, "Y": -1}, "interpolation": 2}]}, "position": 0, "reader": {"acodec": "", "audio_bit_rate": 0, "audio_stream_index": -1, "audio_timebase": {"den": 1, "num": 1}, "channel_layout": 4, "channels": 0, "display_ratio": {"den": 1, "num": 4}, "duration": 12.5, "file_size": "921260", "fps": {"den": 1, "num": 8}, "has_audio": false, "has_single_image": false, "has_video": true, "height": 150, "interlaced_frame": false, "metadata": {}, "path": "/home/preeti/Documents/DT/TCI_few_views/videos/potato/potato_templates_and_test_z.avi", "pixel_format": 12, "pixel_ratio": {"den": 1, "num": 1}, "sample_rate": 0, "top_field_first": true, "type": "FFmpegReader", "vcodec": "mjpeg", "video_bit_rate": 73700, "video_length": "100", "video_stream_index": 0, "video_timebase": {"den": 8, "num": 1}, "width": 600}, "rotation": {"Points": [{"co": {"X": 1, "Y": 0}, "interpolation": 2}]}, "scale": 1, "scale_x": {"Points": [{"co": {"X": 1, "Y": 1}, "interpolation": 2}]}, "scale_y": {"Points": [{"co": {"X": 1, "Y": 1}, "interpolation": 2}]}, "shear_x": {"Points": [{"co": {"X": 1, "Y": 0}, "interpolation": 2}]}, "shear_y": {"Points": [{"co": {"X": 1, "Y": 0}, "interpolation": 2}]}, "start": 0, "time": {"Points": [{"co": {"X": 1, "Y": 1}, "interpolation": 2}]}, "volume": {"Points": [{"co": {"X": 1, "Y": 1}, "interpolation": 2}]}, "wave_color": {"alpha": {"Points": [{"co": {"X": 1, "Y": 255}, "handle_left": {"X": 0.5, "Y": 1}, "handle_right": {"X": 0.5, "Y": 0}, "handle_type": 0, "interpolation": 0}]}, "blue": {"Points": [{"co": {"X": 1, "Y": 255}, "handle_left": {"X": 0.5, "Y": 1}, "handle_right": {"X": 0.5, "Y": 0}, "handle_type": 0, "interpolation": 0}]}, "green": {"Points": [{"co": {"X": 1, "Y": 123}, "handle_left": {"X": 0.5, "Y": 1}, "handle_right": {"X": 0.5, "Y": 0}, "handle_type": 0, "interpolation": 0}]}, "red": {"Points": [{"co": {"X": 1, "Y": 0}, "handle_left": {"X": 0.5, "Y": 1}, "handle_right": {"X": 0.5, "Y": 0}, "handle_type": 0, "interpolation": 0}]}}, "waveform": false, "file_id": "ZZ42TIZ5GB", "title": "potato_templates_and_test_z.avi", "image": "/home/preeti/.openshot_qt/thumbnail/ZZ42TIZ5GB.png"}]}, {"type": "update", "key": ["clips", {"id": "VFDISERUAF"}], "value": {"id": "VFDISERUAF", "layer": 4, "position": 0, "image": "/home/preeti/.openshot_qt/thumbnail/XDGFTQRRJ3.png", "start": 0, "end": 10}, "partial": false, "old_values": {"alpha": {"Points": [{"co": {"X": 1, "Y": 1}, "interpolation": 2}]}, "anchor": 0, "channel_filter": {"Points": [{"co": {"X": 1, "Y": -1}, "interpolation": 2}]}, "channel_mapping": {"Points": [{"co": {"X": 1, "Y": -1}, "interpolation": 2}]}, "crop_height": {"Points": [{"co": {"X": 1, "Y": -1}, "interpolation": 2}]}, "crop_width": {"Points": [{"co": {"X": 1, "Y": -1}, "interpolation": 2}]}, "crop_x": {"Points": [{"co": {"X": 1, "Y": 0}, "interpolation": 2}]}, "crop_y": {"Points": [{"co": {"X": 1, "Y": 0}, "interpolation": 2}]}, "display": 0, "duration": 86400.0, "effects": [], "end": 10.0, "gravity": 4, "has_audio": {"Points": [{"co": {"X": 1, "Y": -1}, "interpolation": 2}]}, "has_video": {"Points": [{"co": {"X": 1, "Y": -1}, "interpolation": 2}]}, "id": "VFDISERUAF", "layer": 4, "location_x": {"Points": [{"co": {"X": 1, "Y": 0}, "interpolation": 2}]}, "location_y": {"Points": [{"co": {"X": 1, "Y": 0}, "interpolation": 2}]}, "mixing": 0, "perspective_c1_x": {"Points": [{"co": {"X": 1, "Y": -1}, "interpolation": 2}]}, "perspective_c1_y": {"Points": [{"co": {"X": 1, "Y": -1}, "interpolation": 2}]}, "perspective_c2_x": {"Points": [{"co": {"X": 1, "Y": -1}, "interpolation": 2}]}, "perspective_c2_y": {"Points": [{"co": {"X": 1, "Y": -1}, "interpolation": 2}]}, "perspective_c3_x": {"Points": [{"co": {"X": 1, "Y": -1}, "interpolation": 2}]}, "perspective_c3_y": {"Points": [{"co": {"X": 1, "Y": -1}, "interpolation": 2}]}, "perspective_c4_x": {"Points": [{"co": {"X": 1, "Y": -1}, "interpolation": 2}]}, "perspective_c4_y": {"Points": [{"co": {"X": 1, "Y": -1}, "interpolation": 2}]}, "position": 6.88, "reader": {"acodec": "", "audio_bit_rate": 0, "audio_stream_index": -1, "audio_timebase": {"den": 1, "num": 1}, "channel_layout": 4, "channels": 0, "display_ratio": {"den": 9, "num": 16}, "duration": 86400.0, "file_size": "8294400", "fps": {"den": 1, "num": 30}, "has_audio": false, "has_single_image": true, "has_video": true, "height": 1080, "interlaced_frame": false, "metadata": {}, "path": "/home/preeti/Documents/DT/TCI_few_views/videos/potato/templates_test_title.svg", "pixel_format": -1, "pixel_ratio": {"den": 1, "num": 1}, "sample_rate": 0, "top_field_first": true, "type": "QtImageReader", "vcodec": "", "video_bit_rate": 0, "video_length": "2592000", "video_stream_index": -1, "video_timebase": {"den": 30, "num": 1}, "width": 1920}, "rotation": {"Points": [{"co": {"X": 1, "Y": 0}, "interpolation": 2}]}, "scale": 1, "scale_x": {"Points": [{"co": {"X": 1, "Y": 1}, "interpolation": 2}]}, "scale_y": {"Points": [{"co": {"X": 1, "Y": 1}, "interpolation": 2}]}, "shear_x": {"Points": [{"co": {"X": 1, "Y": 0}, "interpolation": 2}]}, "shear_y": {"Points": [{"co": {"X": 1, "Y": 0}, "interpolation": 2}]}, "start": 0, "time": {"Points": [{"co": {"X": 1, "Y": 1}, "interpolation": 2}]}, "volume": {"Points": [{"co": {"X": 1, "Y": 1}, "interpolation": 2}]}, "wave_color": {"alpha": {"Points": [{"co": {"X": 1, "Y": 255}, "handle_left": {"X": 0.5, "Y": 1}, "handle_right": {"X": 0.5, "Y": 0}, "handle_type": 0, "interpolation": 0}]}, "blue": {"Points": [{"co": {"X": 1, "Y": 255}, "handle_left": {"X": 0.5, "Y": 1}, "handle_right": {"X": 0.5, "Y": 0}, "handle_type": 0, "interpolation": 0}]}, "green": {"Points": [{"co": {"X": 1, "Y": 123}, "handle_left": {"X": 0.5, "Y": 1}, "handle_right": {"X": 0.5, "Y": 0}, "handle_type": 0, "interpolation": 0}]}, "red": {"Points": [{"co": {"X": 1, "Y": 0}, "handle_left": {"X": 0.5, "Y": 1}, "handle_right": {"X": 0.5, "Y": 0}, "handle_type": 0, "interpolation": 0}]}}, "waveform": false, "file_id": "XDGFTQRRJ3", "title": "templates_test_title.svg", "image": "/home/preeti/.openshot_qt/thumbnail/XDGFTQRRJ3.png"}}, {"type": "delete", "key": ["files", {"id": "XDGFTQRRJ3"}], "value": null, "partial": false, "old_values": {"acodec": "", "audio_bit_rate": 0, "audio_stream_index": -1, "audio_timebase": {"den": 1, "num": 1}, "channel_layout": 4, "channels": 0, "display_ratio": {"den": 9, "num": 16}, "duration": 86400, "file_size": "8294400", "fps": {"den": 1, "num": 30}, "has_audio": false, "has_single_image": true, "has_video": true, "height": 1080, "interlaced_frame": false, "metadata": {}, "path": "/home/preeti/Documents/DT/TCI_few_views/videos/potato/templates_test_title.svg", "pixel_format": -1, "pixel_ratio": {"den": 1, "num": 1}, "sample_rate": 0, "top_field_first": true, "type": "QtImageReader", "vcodec": "", "video_bit_rate": 0, "video_length": "2592000", "video_stream_index": -1, "video_timebase": {"den": 30, "num": 1}, "width": 1920, "media_type": "image", "id": "XDGFTQRRJ3"}}, {"type": "delete", "key": ["clips", {"id": "VFDISERUAF"}], "value": null, "partial": false, "old_values": {"alpha": {"Points": [{"co": {"X": 1, "Y": 1}, "interpolation": 2}]}, "anchor": 0, "channel_filter": {"Points": [{"co": {"X": 1, "Y": -1}, "interpolation": 2}]}, "channel_mapping": {"Points": [{"co": {"X": 1, "Y": -1}, "interpolation": 2}]}, "crop_height": {"Points": [{"co": {"X": 1, "Y": -1}, "interpolation": 2}]}, "crop_width": {"Points": [{"co": {"X": 1, "Y": -1}, "interpolation": 2}]}, "crop_x": {"Points": [{"co": {"X": 1, "Y": 0}, "interpolation": 2}]}, "crop_y": {"Points": [{"co": {"X": 1, "Y": 0}, "interpolation": 2}]}, "display": 0, "duration": 86400.0, "effects": [], "end": 10, "gravity": 4, "has_audio": {"Points": [{"co": {"X": 1, "Y": -1}, "interpolation": 2}]}, "has_video": {"Points": [{"co": {"X": 1, "Y": -1}, "interpolation": 2}]}, "id": "VFDISERUAF", "layer": 4, "location_x": {"Points": [{"co": {"X": 1, "Y": 0}, "interpolation": 2}]}, "location_y": {"Points": [{"co": {"X": 1, "Y": 0}, "interpolation": 2}]}, "mixing": 0, "perspective_c1_x": {"Points": [{"co": {"X": 1, "Y": -1}, "interpolation": 2}]}, "perspective_c1_y": {"Points": [{"co": {"X": 1, "Y": -1}, "interpolation": 2}]}, "perspective_c2_x": {"Points": [{"co": {"X": 1, "Y": -1}, "interpolation": 2}]}, "perspective_c2_y": {"Points": [{"co": {"X": 1, "Y": -1}, "interpolation": 2}]}, "perspective_c3_x": {"Points": [{"co": {"X": 1, "Y": -1}, "interpolation": 2}]}, "perspective_c3_y": {"Points": [{"co": {"X": 1, "Y": -1}, "interpolation": 2}]}, "perspective_c4_x": {"Points": [{"co": {"X": 1, "Y": -1}, "interpolation": 2}]}, "perspective_c4_y": {"Points": [{"co": {"X": 1, "Y": -1}, "interpolation": 2}]}, "position": 0, "reader": {"acodec": "", "audio_bit_rate": 0, "audio_stream_index": -1, "audio_timebase": {"den": 1, "num": 1}, "channel_layout": 4, "channels": 0, "display_ratio": {"den": 9, "num": 16}, "duration": 86400.0, "file_size": "8294400", "fps": {"den": 1, "num": 30}, "has_audio": false, "has_single_image": true, "has_video": true, "height": 1080, "interlaced_frame": false, "metadata": {}, "path": "/home/preeti/Documents/DT/TCI_few_views/videos/potato/templates_test_title.svg", "pixel_format": -1, "pixel_ratio": {"den": 1, "num": 1}, "sample_rate": 0, "top_field_first": true, "type": "QtImageReader", "vcodec": "", "video_bit_rate": 0, "video_length": "2592000", "video_stream_index": -1, "video_timebase": {"den": 30, "num": 1}, "width": 1920}, "rotation": {"Points": [{"co": {"X": 1, "Y": 0}, "interpolation": 2}]}, "scale": 1, "scale_x": {"Points": [{"co": {"X": 1, "Y": 1}, "interpolation": 2}]}, "scale_y": {"Points": [{"co": {"X": 1, "Y": 1}, "interpolation": 2}]}, "shear_x": {"Points": [{"co": {"X": 1, "Y": 0}, "interpolation": 2}]}, "shear_y": {"Points": [{"co": {"X": 1, "Y": 0}, "interpolation": 2}]}, "start": 0, "time": {"Points": [{"co": {"X": 1, "Y": 1}, "interpolation": 2}]}, "volume": {"Points": [{"co": {"X": 1, "Y": 1}, "interpolation": 2}]}, "wave_color": {"alpha": {"Points": [{"co": {"X": 1, "Y": 255}, "handle_left": {"X": 0.5, "Y": 1}, "handle_right": {"X": 0.5, "Y": 0}, "handle_type": 0, "interpolation": 0}]}, "blue": {"Points": [{"co": {"X": 1, "Y": 255}, "handle_left": {"X": 0.5, "Y": 1}, "handle_right": {"X": 0.5, "Y": 0}, "handle_type": 0, "interpolation": 0}]}, "green": {"Points": [{"co": {"X": 1, "Y": 123}, "handle_left": {"X": 0.5, "Y": 1}, "handle_right": {"X": 0.5, "Y": 0}, "handle_type": 0, "interpolation": 0}]}, "red": {"Points": [{"co": {"X": 1, "Y": 0}, "handle_left": {"X": 0.5, "Y": 1}, "handle_right": {"X": 0.5, "Y": 0}, "handle_type": 0, "interpolation": 0}]}}, "waveform": false, "file_id": "XDGFTQRRJ3", "title": "templates_test_title.svg", "image": "/home/preeti/.openshot_qt/thumbnail/XDGFTQRRJ3.png"}}, {"type": "insert", "key": ["files"], "value": {"acodec": "", "audio_bit_rate": 0, "audio_stream_index": -1, "audio_timebase": {"den": 1, "num": 1}, "channel_layout": 4, "channels": 0, "display_ratio": {"den": 9, "num": 16}, "duration": 86400, "file_size": "8294400", "fps": {"den": 1, "num": 30}, "has_audio": false, "has_single_image": true, "has_video": true, "height": 1080, "interlaced_frame": false, "metadata": {}, "path": "/home/preeti/Documents/DT/TCI_few_views/videos/potato/templates_test_title.svg", "pixel_format": -1, "pixel_ratio": {"den": 1, "num": 1}, "sample_rate": 0, "top_field_first": true, "type": "QtImageReader", "vcodec": "", "video_bit_rate": 0, "video_length": "2592000", "video_stream_index": -1, "video_timebase": {"den": 30, "num": 1}, "width": 1920, "media_type": "image", "id": "3RWL7GLR0G"}, "partial": false, "old_values": [{"acodec": "", "audio_bit_rate": 0, "audio_stream_index": -1, "audio_timebase": {"den": 1, "num": 1}, "channel_layout": 4, "channels": 0, "display_ratio": {"den": 1, "num": 4}, "duration": 12.5, "file_size": "921260", "fps": {"den": 1, "num": 8}, "has_audio": false, "has_single_image": false, "has_video": true, "height": 150, "interlaced_frame": false, "metadata": {}, "path": "/home/preeti/Documents/DT/TCI_few_views/videos/potato/potato_templates_and_test_z.avi", "pixel_format": 12, "pixel_ratio": {"den": 1, "num": 1}, "sample_rate": 0, "top_field_first": true, "type": "FFmpegReader", "vcodec": "mjpeg", "video_bit_rate": 73700, "video_length": "100", "video_stream_index": 0, "video_timebase": {"den": 8, "num": 1}, "width": 600, "media_type": "video", "id": "ZZ42TIZ5GB"}]}, {"type": "update", "key": ["import_path"], "value": "/home/preeti/Documents/DT/TCI_few_views/videos/potato", "partial": false, "old_values": "/home/preeti/Documents/DT/TCI_few_views/videos/potato"}, {"type": "insert", "key": ["clips"], "value": {"alpha": {"Points": [{"co": {"X": 1, "Y": 1}, "interpolation": 2}]}, "anchor": 0, "channel_filter": {"Points": [{"co": {"X": 1, "Y": -1}, "interpolation": 2}]}, "channel_mapping": {"Points": [{"co": {"X": 1, "Y": -1}, "interpolation": 2}]}, "crop_height": {"Points": [{"co": {"X": 1, "Y": -1}, "interpolation": 2}]}, "crop_width": {"Points": [{"co": {"X": 1, "Y": -1}, "interpolation": 2}]}, "crop_x": {"Points": [{"co": {"X": 1, "Y": 0}, "interpolation": 2}]}, "crop_y": {"Points": [{"co": {"X": 1, "Y": 0}, "interpolation": 2}]}, "display": 0, "duration": 86400.0, "effects": [], "end": 10, "gravity": 4, "has_audio": {"Points": [{"co": {"X": 1, "Y": -1}, "interpolation": 2}]}, "has_video": {"Points": [{"co": {"X": 1, "Y": -1}, "interpolation": 2}]}, "id": "2Q07YBPEVF", "layer": 4, "location_x": {"Points": [{"co": {"X": 1, "Y": 0}, "interpolation": 2}]}, "location_y": {"Points": [{"co": {"X": 1, "Y": 0}, "interpolation": 2}]}, "mixing": 0, "perspective_c1_x": {"Points": [{"co": {"X": 1, "Y": -1}, "interpolation": 2}]}, "perspective_c1_y": {"Points": [{"co": {"X": 1, "Y": -1}, "interpolation": 2}]}, "perspective_c2_x": {"Points": [{"co": {"X": 1, "Y": -1}, "interpolation": 2}]}, "perspective_c2_y": {"Points": [{"co": {"X": 1, "Y": -1}, "interpolation": 2}]}, "perspective_c3_x": {"Points": [{"co": {"X": 1, "Y": -1}, "interpolation": 2}]}, "perspective_c3_y": {"Points": [{"co": {"X": 1, "Y": -1}, "interpolation": 2}]}, "perspective_c4_x": {"Points": [{"co": {"X": 1, "Y": -1}, "interpolation": 2}]}, "perspective_c4_y": {"Points": [{"co": {"X": 1, "Y": -1}, "interpolation": 2}]}, "position": 0, "reader": {"acodec": "", "audio_bit_rate": 0, "audio_stream_index": -1, "audio_timebase": {"den": 1, "num": 1}, "channel_layout": 4, "channels": 0, "display_ratio": {"den": 9, "num": 16}, "duration": 86400.0, "file_size": "8294400", "fps": {"den": 1, "num": 30}, "has_audio": false, "has_single_image": true, "has_video": true, "height": 1080, "interlaced_frame": false, "metadata": {}, "path": "/home/preeti/Documents/DT/TCI_few_views/videos/potato/templates_test_title.svg", "pixel_format": -1, "pixel_ratio": {"den": 1, "num": 1}, "sample_rate": 0, "top_field_first": true, "type": "QtImageReader", "vcodec": "", "video_bit_rate": 0, "video_length": "2592000", "video_stream_index": -1, "video_timebase": {"den": 30, "num": 1}, "width": 1920}, "rotation": {"Points": [{"co": {"X": 1, "Y": 0}, "interpolation": 2}]}, "scale": 1, "scale_x": {"Points": [{"co": {"X": 1, "Y": 1}, "interpolation": 2}]}, "scale_y": {"Points": [{"co": {"X": 1, "Y": 1}, "interpolation": 2}]}, "shear_x": {"Points": [{"co": {"X": 1, "Y": 0}, "interpolation": 2}]}, "shear_y": {"Points": [{"co": {"X": 1, "Y": 0}, "interpolation": 2}]}, "start": 0, "time": {"Points": [{"co": {"X": 1, "Y": 1}, "interpolation": 2}]}, "volume": {"Points": [{"co": {"X": 1, "Y": 1}, "interpolation": 2}]}, "wave_color": {"alpha": {"Points": [{"co": {"X": 1, "Y": 255}, "handle_left": {"X": 0.5, "Y": 1}, "handle_right": {"X": 0.5, "Y": 0}, "handle_type": 0, "interpolation": 0}]}, "blue": {"Points": [{"co": {"X": 1, "Y": 255}, "handle_left": {"X": 0.5, "Y": 1}, "handle_right": {"X": 0.5, "Y": 0}, "handle_type": 0, "interpolation": 0}]}, "green": {"Points": [{"co": {"X": 1, "Y": 123}, "handle_left": {"X": 0.5, "Y": 1}, "handle_right": {"X": 0.5, "Y": 0}, "handle_type": 0, "interpolation": 0}]}, "red": {"Points": [{"co": {"X": 1, "Y": 0}, "handle_left": {"X": 0.5, "Y": 1}, "handle_right": {"X": 0.5, "Y": 0}, "handle_type": 0, "interpolation": 0}]}}, "waveform": false, "file_id": "3RWL7GLR0G", "title": "templates_test_title.svg", "image": "/home/preeti/.openshot_qt/thumbnail/3RWL7GLR0G.png"}, "partial": false, "old_values": [{"alpha": {"Points": [{"co": {"X": 1, "Y": 1}, "interpolation": 2}]}, "anchor": 0, "channel_filter": {"Points": [{"co": {"X": 1, "Y": -1}, "interpolation": 2}]}, "channel_mapping": {"Points": [{"co": {"X": 1, "Y": -1}, "interpolation": 2}]}, "crop_height": {"Points": [{"co": {"X": 1, "Y": -1}, "interpolation": 2}]}, "crop_width": {"Points": [{"co": {"X": 1, "Y": -1}, "interpolation": 2}]}, "crop_x": {"Points": [{"co": {"X": 1, "Y": 0}, "interpolation": 2}]}, "crop_y": {"Points": [{"co": {"X": 1, "Y": 0}, "interpolation": 2}]}, "display": 0, "duration": 12.5, "effects": [], "end": 12.5, "gravity": 4, "has_audio": {"Points": [{"co": {"X": 1, "Y": -1}, "interpolation": 2}]}, "has_video": {"Points": [{"co": {"X": 1, "Y": -1}, "interpolation": 2}]}, "id": "1YFRNRR7VC", "layer": 3, "location_x": {"Points": [{"co": {"X": 1, "Y": 0}, "interpolation": 2}]}, "location_y": {"Points": [{"co": {"X": 1, "Y": 0}, "interpolation": 2}]}, "mixing": 0, "perspective_c1_x": {"Points": [{"co": {"X": 1, "Y": -1}, "interpolation": 2}]}, "perspective_c1_y": {"Points": [{"co": {"X": 1, "Y": -1}, "interpolation": 2}]}, "perspective_c2_x": {"Points": [{"co": {"X": 1, "Y": -1}, "interpolation": 2}]}, "perspective_c2_y": {"Points": [{"co": {"X": 1, "Y": -1}, "interpolation": 2}]}, "perspective_c3_x": {"Points": [{"co": {"X": 1, "Y": -1}, "interpolation": 2}]}, "perspective_c3_y": {"Points": [{"co": {"X": 1, "Y": -1}, "interpolation": 2}]}, "perspective_c4_x": {"Points": [{"co": {"X": 1, "Y": -1}, "interpolation": 2}]}, "perspective_c4_y": {"Points": [{"co": {"X": 1, "Y": -1}, "interpolation": 2}]}, "position": 0, "reader": {"acodec": "", "audio_bit_rate": 0, "audio_stream_index": -1, "audio_timebase": {"den": 1, "num": 1}, "channel_layout": 4, "channels": 0, "display_ratio": {"den": 1, "num": 4}, "duration": 12.5, "file_size": "921260", "fps": {"den": 1, "num": 8}, "has_audio": false, "has_single_image": false, "has_video": true, "height": 150, "interlaced_frame": false, "metadata": {}, "path": "/home/preeti/Documents/DT/TCI_few_views/videos/potato/potato_templates_and_test_z.avi", "pixel_format": 12, "pixel_ratio": {"den": 1, "num": 1}, "sample_rate": 0, "top_field_first": true, "type": "FFmpegReader", "vcodec": "mjpeg", "video_bit_rate": 73700, "video_length": "100", "video_stream_index": 0, "video_timebase": {"den": 8, "num": 1}, "width": 600}, "rotation": {"Points": [{"co": {"X": 1, "Y": 0}, "interpolation": 2}]}, "scale": 1, "scale_x": {"Points": [{"co": {"X": 1, "Y": 1}, "interpolation": 2}]}, "scale_y": {"Points": [{"co": {"X": 1, "Y": 1}, "interpolation": 2}]}, "shear_x": {"Points": [{"co": {"X": 1, "Y": 0}, "interpolation": 2}]}, "shear_y": {"Points": [{"co": {"X": 1, "Y": 0}, "interpolation": 2}]}, "start": 0, "time": {"Points": [{"co": {"X": 1, "Y": 1}, "interpolation": 2}]}, "volume": {"Points": [{"co": {"X": 1, "Y": 1}, "interpolation": 2}]}, "wave_color": {"alpha": {"Points": [{"co": {"X": 1, "Y": 255}, "handle_left": {"X": 0.5, "Y": 1}, "handle_right": {"X": 0.5, "Y": 0}, "handle_type": 0, "interpolation": 0}]}, "blue": {"Points": [{"co": {"X": 1, "Y": 255}, "handle_left": {"X": 0.5, "Y": 1}, "handle_right": {"X": 0.5, "Y": 0}, "handle_type": 0, "interpolation": 0}]}, "green": {"Points": [{"co": {"X": 1, "Y": 123}, "handle_left": {"X": 0.5, "Y": 1}, "handle_right": {"X": 0.5, "Y": 0}, "handle_type": 0, "interpolation": 0}]}, "red": {"Points": [{"co": {"X": 1, "Y": 0}, "handle_left": {"X": 0.5, "Y": 1}, "handle_right": {"X": 0.5, "Y": 0}, "handle_type": 0, "interpolation": 0}]}}, "waveform": false, "file_id": "ZZ42TIZ5GB", "title": "potato_templates_and_test_z.avi", "image": "/home/preeti/.openshot_qt/thumbnail/ZZ42TIZ5GB.png"}]}, {"type": "update", "key": ["clips", {"id": "2Q07YBPEVF"}], "value": {"id": "2Q07YBPEVF", "layer": 4, "position": 0, "image": "/home/preeti/.openshot_qt/thumbnail/3RWL7GLR0G.png", "start": 0, "end": 10}, "partial": false, "old_values": {"alpha": {"Points": [{"co": {"X": 1, "Y": 1}, "interpolation": 2}]}, "anchor": 0, "channel_filter": {"Points": [{"co": {"X": 1, "Y": -1}, "interpolation": 2}]}, "channel_mapping": {"Points": [{"co": {"X": 1, "Y": -1}, "interpolation": 2}]}, "crop_height": {"Points": [{"co": {"X": 1, "Y": -1}, "interpolation": 2}]}, "crop_width": {"Points": [{"co": {"X": 1, "Y": -1}, "interpolation": 2}]}, "crop_x": {"Points": [{"co": {"X": 1, "Y": 0}, "interpolation": 2}]}, "crop_y": {"Points": [{"co": {"X": 1, "Y": 0}, "interpolation": 2}]}, "display": 0, "duration": 86400.0, "effects": [], "end": 10.0, "gravity": 4, "has_audio": {"Points": [{"co": {"X": 1, "Y": -1}, "interpolation": 2}]}, "has_video": {"Points": [{"co": {"X": 1, "Y": -1}, "interpolation": 2}]}, "id": "2Q07YBPEVF", "layer": 4, "location_x": {"Points": [{"co": {"X": 1, "Y": 0}, "interpolation": 2}]}, "location_y": {"Points": [{"co": {"X": 1, "Y": 0}, "interpolation": 2}]}, "mixing": 0, "perspective_c1_x": {"Points": [{"co": {"X": 1, "Y": -1}, "interpolation": 2}]}, "perspective_c1_y": {"Points": [{"co": {"X": 1, "Y": -1}, "interpolation": 2}]}, "perspective_c2_x": {"Points": [{"co": {"X": 1, "Y": -1}, "interpolation": 2}]}, "perspective_c2_y": {"Points": [{"co": {"X": 1, "Y": -1}, "interpolation": 2}]}, "perspective_c3_x": {"Points": [{"co": {"X": 1, "Y": -1}, "interpolation": 2}]}, "perspective_c3_y": {"Points": [{"co": {"X": 1, "Y": -1}, "interpolation": 2}]}, "perspective_c4_x": {"Points": [{"co": {"X": 1, "Y": -1}, "interpolation": 2}]}, "perspective_c4_y": {"Points": [{"co": {"X": 1, "Y": -1}, "interpolation": 2}]}, "position": 2.72, "reader": {"acodec": "", "audio_bit_rate": 0, "audio_stream_index": -1, "audio_timebase": {"den": 1, "num": 1}, "channel_layout": 4, "channels": 0, "display_ratio": {"den": 9, "num": 16}, "duration": 86400.0, "file_size": "8294400", "fps": {"den": 1, "num": 30}, "has_audio": false, "has_single_image": true, "has_video": true, "height": 1080, "interlaced_frame": false, "metadata": {}, "path": "/home/preeti/Documents/DT/TCI_few_views/videos/potato/templates_test_title.svg", "pixel_format": -1, "pixel_ratio": {"den": 1, "num": 1}, "sample_rate": 0, "top_field_first": true, "type": "QtImageReader", "vcodec": "", "video_bit_rate": 0, "video_length": "2592000", "video_stream_index": -1, "video_timebase": {"den": 30, "num": 1}, "width": 1920}, "rotation": {"Points": [{"co": {"X": 1, "Y": 0}, "interpolation": 2}]}, "scale": 1, "scale_x": {"Points": [{"co": {"X": 1, "Y": 1}, "interpolation": 2}]}, "scale_y": {"Points": [{"co": {"X": 1, "Y": 1}, "interpolation": 2}]}, "shear_x": {"Points": [{"co": {"X": 1, "Y": 0}, "interpolation": 2}]}, "shear_y": {"Points": [{"co": {"X": 1, "Y": 0}, "interpolation": 2}]}, "start": 0, "time": {"Points": [{"co": {"X": 1, "Y": 1}, "interpolation": 2}]}, "volume": {"Points": [{"co": {"X": 1, "Y": 1}, "interpolation": 2}]}, "wave_color": {"alpha": {"Points": [{"co": {"X": 1, "Y": 255}, "handle_left": {"X": 0.5, "Y": 1}, "handle_right": {"X": 0.5, "Y": 0}, "handle_type": 0, "interpolation": 0}]}, "blue": {"Points": [{"co": {"X": 1, "Y": 255}, "handle_left": {"X": 0.5, "Y": 1}, "handle_right": {"X": 0.5, "Y": 0}, "handle_type": 0, "interpolation": 0}]}, "green": {"Points": [{"co": {"X": 1, "Y": 123}, "handle_left": {"X": 0.5, "Y": 1}, "handle_right": {"X": 0.5, "Y": 0}, "handle_type": 0, "interpolation": 0}]}, "red": {"Points": [{"co": {"X": 1, "Y": 0}, "handle_left": {"X": 0.5, "Y": 1}, "handle_right": {"X": 0.5, "Y": 0}, "handle_type": 0, "interpolation": 0}]}}, "waveform": false, "file_id": "3RWL7GLR0G", "title": "templates_test_title.svg", "image": "/home/preeti/.openshot_qt/thumbnail/3RWL7GLR0G.png"}}, {"type": "delete", "key": ["files", {"id": "3RWL7GLR0G"}], "value": null, "partial": false, "old_values": {"acodec": "", "audio_bit_rate": 0, "audio_stream_index": -1, "audio_timebase": {"den": 1, "num": 1}, "channel_layout": 4, "channels": 0, "display_ratio": {"den": 9, "num": 16}, "duration": 86400, "file_size": "8294400", "fps": {"den": 1, "num": 30}, "has_audio": false, "has_single_image": true, "has_video": true, "height": 1080, "interlaced_frame": false, "metadata": {}, "path": "/home/preeti/Documents/DT/TCI_few_views/videos/potato/templates_test_title.svg", "pixel_format": -1, "pixel_ratio": {"den": 1, "num": 1}, "sample_rate": 0, "top_field_first": true, "type": "QtImageReader", "vcodec": "", "video_bit_rate": 0, "video_length": "2592000", "video_stream_index": -1, "video_timebase": {"den": 30, "num": 1}, "width": 1920, "media_type": "image", "id": "3RWL7GLR0G"}}, {"type": "delete", "key": ["clips", {"id": "2Q07YBPEVF"}], "value": null, "partial": false, "old_values": {"alpha": {"Points": [{"co": {"X": 1, "Y": 1}, "interpolation": 2}]}, "anchor": 0, "channel_filter": {"Points": [{"co": {"X": 1, "Y": -1}, "interpolation": 2}]}, "channel_mapping": {"Points": [{"co": {"X": 1, "Y": -1}, "interpolation": 2}]}, "crop_height": {"Points": [{"co": {"X": 1, "Y": -1}, "interpolation": 2}]}, "crop_width": {"Points": [{"co": {"X": 1, "Y": -1}, "interpolation": 2}]}, "crop_x": {"Points": [{"co": {"X": 1, "Y": 0}, "interpolation": 2}]}, "crop_y": {"Points": [{"co": {"X": 1, "Y": 0}, "interpolation": 2}]}, "display": 0, "duration": 86400.0, "effects": [], "end": 10, "gravity": 4, "has_audio": {"Points": [{"co": {"X": 1, "Y": -1}, "interpolation": 2}]}, "has_video": {"Points": [{"co": {"X": 1, "Y": -1}, "interpolation": 2}]}, "id": "2Q07YBPEVF", "layer": 4, "location_x": {"Points": [{"co": {"X": 1, "Y": 0}, "interpolation": 2}]}, "location_y": {"Points": [{"co": {"X": 1, "Y": 0}, "interpolation": 2}]}, "mixing": 0, "perspective_c1_x": {"Points": [{"co": {"X": 1, "Y": -1}, "interpolation": 2}]}, "perspective_c1_y": {"Points": [{"co": {"X": 1, "Y": -1}, "interpolation": 2}]}, "perspective_c2_x": {"Points": [{"co": {"X": 1, "Y": -1}, "interpolation": 2}]}, "perspective_c2_y": {"Points": [{"co": {"X": 1, "Y": -1}, "interpolation": 2}]}, "perspective_c3_x": {"Points": [{"co": {"X": 1, "Y": -1}, "interpolation": 2}]}, "perspective_c3_y": {"Points": [{"co": {"X": 1, "Y": -1}, "interpolation": 2}]}, "perspective_c4_x": {"Points": [{"co": {"X": 1, "Y": -1}, "interpolation": 2}]}, "perspective_c4_y": {"Points": [{"co": {"X": 1, "Y": -1}, "interpolation": 2}]}, "position": 0, "reader": {"acodec": "", "audio_bit_rate": 0, "audio_stream_index": -1, "audio_timebase": {"den": 1, "num": 1}, "channel_layout": 4, "channels": 0, "display_ratio": {"den": 9, "num": 16}, "duration": 86400.0, "file_size": "8294400", "fps": {"den": 1, "num": 30}, "has_audio": false, "has_single_image": true, "has_video": true, "height": 1080, "interlaced_frame": false, "metadata": {}, "path": "/home/preeti/Documents/DT/TCI_few_views/videos/potato/templates_test_title.svg", "pixel_format": -1, "pixel_ratio": {"den": 1, "num": 1}, "sample_rate": 0, "top_field_first": true, "type": "QtImageReader", "vcodec": "", "video_bit_rate": 0, "video_length": "2592000", "video_stream_index": -1, "video_timebase": {"den": 30, "num": 1}, "width": 1920}, "rotation": {"Points": [{"co": {"X": 1, "Y": 0}, "interpolation": 2}]}, "scale": 1, "scale_x": {"Points": [{"co": {"X": 1, "Y": 1}, "interpolation": 2}]}, "scale_y": {"Points": [{"co": {"X": 1, "Y": 1}, "interpolation": 2}]}, "shear_x": {"Points": [{"co": {"X": 1, "Y": 0}, "interpolation": 2}]}, "shear_y": {"Points": [{"co": {"X": 1, "Y": 0}, "interpolation": 2}]}, "start": 0, "time": {"Points": [{"co": {"X": 1, "Y": 1}, "interpolation": 2}]}, "volume": {"Points": [{"co": {"X": 1, "Y": 1}, "interpolation": 2}]}, "wave_color": {"alpha": {"Points": [{"co": {"X": 1, "Y": 255}, "handle_left": {"X": 0.5, "Y": 1}, "handle_right": {"X": 0.5, "Y": 0}, "handle_type": 0, "interpolation": 0}]}, "blue": {"Points": [{"co": {"X": 1, "Y": 255}, "handle_left": {"X": 0.5, "Y": 1}, "handle_right": {"X": 0.5, "Y": 0}, "handle_type": 0, "interpolation": 0}]}, "green": {"Points": [{"co": {"X": 1, "Y": 123}, "handle_left": {"X": 0.5, "Y": 1}, "handle_right": {"X": 0.5, "Y": 0}, "handle_type": 0, "interpolation": 0}]}, "red": {"Points": [{"co": {"X": 1, "Y": 0}, "handle_left": {"X": 0.5, "Y": 1}, "handle_right": {"X": 0.5, "Y": 0}, "handle_type": 0, "interpolation": 0}]}}, "waveform": false, "file_id": "3RWL7GLR0G", "title": "templates_test_title.svg", "image": "/home/preeti/.openshot_qt/thumbnail/3RWL7GLR0G.png"}}, {"type": "insert", "key": ["files"], "value": {"acodec": "", "audio_bit_rate": 0, "audio_stream_index": -1, "audio_timebase": {"den": 1, "num": 1}, "channel_layout": 4, "channels": 0, "display_ratio": {"den": 9, "num": 16}, "duration": 86400, "file_size": "8294400", "fps": {"den": 1, "num": 30}, "has_audio": false, "has_single_image": true, "has_video": true, "height": 1080, "interlaced_frame": false, "metadata": {}, "path": "/home/preeti/Documents/DT/TCI_few_views/videos/potato/templates_test_title.svg", "pixel_format": -1, "pixel_ratio": {"den": 1, "num": 1}, "sample_rate": 0, "top_field_first": true, "type": "QtImageReader", "vcodec": "", "video_bit_rate": 0, "video_length": "2592000", "video_stream_index": -1, "video_timebase": {"den": 30, "num": 1}, "width": 1920, "media_type": "image", "id": "DD4MNHBLLW"}, "partial": false, "old_values": [{"acodec": "", "audio_bit_rate": 0, "audio_stream_index": -1, "audio_timebase": {"den": 1, "num": 1}, "channel_layout": 4, "channels": 0, "display_ratio": {"den": 1, "num": 4}, "duration": 12.5, "file_size": "921260", "fps": {"den": 1, "num": 8}, "has_audio": false, "has_single_image": false, "has_video": true, "height": 150, "interlaced_frame": false, "metadata": {}, "path": "/home/preeti/Documents/DT/TCI_few_views/videos/potato/potato_templates_and_test_z.avi", "pixel_format": 12, "pixel_ratio": {"den": 1, "num": 1}, "sample_rate": 0, "top_field_first": true, "type": "FFmpegReader", "vcodec": "mjpeg", "video_bit_rate": 73700, "video_length": "100", "video_stream_index": 0, "video_timebase": {"den": 8, "num": 1}, "width": 600, "media_type": "video", "id": "ZZ42TIZ5GB"}]}, {"type": "update", "key": ["import_path"], "value": "/home/preeti/Documents/DT/TCI_few_views/videos/potato", "partial": false, "old_values": "/home/preeti/Documents/DT/TCI_few_views/videos/potato"}, {"type": "insert", "key": ["clips"], "value": {"alpha": {"Points": [{"co": {"X": 1, "Y": 1}, "interpolation": 2}]}, "anchor": 0, "channel_filter": {"Points": [{"co": {"X": 1, "Y": -1}, "interpolation": 2}]}, "channel_mapping": {"Points": [{"co": {"X": 1, "Y": -1}, "interpolation": 2}]}, "crop_height": {"Points": [{"co": {"X": 1, "Y": -1}, "interpolation": 2}]}, "crop_width": {"Points": [{"co": {"X": 1, "Y": -1}, "interpolation": 2}]}, "crop_x": {"Points": [{"co": {"X": 1, "Y": 0}, "interpolation": 2}]}, "crop_y": {"Points": [{"co": {"X": 1, "Y": 0}, "interpolation": 2}]}, "display": 0, "duration": 86400.0, "effects": [], "end": 12.566666666666666, "gravity": 4, "has_audio": {"Points": [{"co": {"X": 1, "Y": -1}, "interpolation": 2}]}, "has_video": {"Points": [{"co": {"X": 1, "Y": -1}, "interpolation": 2}]}, "id": "6KMZQLFB2P", "layer": 4, "location_x": {"Points": [{"co": {"X": 1, "Y": 0}, "interpolation": 2}]}, "location_y": {"Points": [{"co": {"X": 1, "Y": 0}, "interpolation": 2}]}, "mixing": 0, "perspective_c1_x": {"Points": [{"co": {"X": 1, "Y": -1}, "interpolation": 2}]}, "perspective_c1_y": {"Points": [{"co": {"X": 1, "Y": -1}, "interpolation": 2}]}, "perspective_c2_x": {"Points": [{"co": {"X": 1, "Y": -1}, "interpolation": 2}]}, "perspective_c2_y": {"Points": [{"co": {"X": 1, "Y": -1}, "interpolation": 2}]}, "perspective_c3_x": {"Points": [{"co": {"X": 1, "Y": -1}, "interpolation": 2}]}, "perspective_c3_y": {"Points": [{"co": {"X": 1, "Y": -1}, "interpolation": 2}]}, "perspective_c4_x": {"Points": [{"co": {"X": 1, "Y": -1}, "interpolation": 2}]}, "perspective_c4_y": {"Points": [{"co": {"X": 1, "Y": -1}, "interpolation": 2}]}, "position": 0, "reader": {"acodec": "", "audio_bit_rate": 0, "audio_stream_index": -1, "audio_timebase": {"den": 1, "num": 1}, "channel_layout": 4, "channels": 0, "display_ratio": {"den": 9, "num": 16}, "duration": 86400.0, "file_size": "8294400", "fps": {"den": 1, "num": 30}, "has_audio": false, "has_single_image": true, "has_video": true, "height": 1080, "interlaced_frame": false, "metadata": {}, "path": "/home/preeti/Documents/DT/TCI_few_views/videos/potato/templates_test_title.svg", "pixel_format": -1, "pixel_ratio": {"den": 1, "num": 1}, "sample_rate": 0, "top_field_first": true, "type": "QtImageReader", "vcodec": "", "video_bit_rate": 0, "video_length": "2592000", "video_stream_index": -1, "video_timebase": {"den": 30, "num": 1}, "width": 1920}, "rotation": {"Points": [{"co": {"X": 1, "Y": 0}, "interpolation": 2}]}, "scale": 1, "scale_x": {"Points": [{"co": {"X": 1, "Y": 1}, "interpolation": 2}]}, "scale_y": {"Points": [{"co": {"X": 1, "Y": 1}, "interpolation": 2}]}, "shear_x": {"Points": [{"co": {"X": 1, "Y": 0}, "interpolation": 2}]}, "shear_y": {"Points": [{"co": {"X": 1, "Y": 0}, "interpolation": 2}]}, "start": 0, "time": {"Points": [{"co": {"X": 1, "Y": 1}, "interpolation": 2}]}, "volume": {"Points": [{"co": {"X": 1, "Y": 1}, "interpolation": 2}]}, "wave_color": {"alpha": {"Points": [{"co": {"X": 1, "Y": 255}, "handle_left": {"X": 0.5, "Y": 1}, "handle_right": {"X": 0.5, "Y": 0}, "handle_type": 0, "interpolation": 0}]}, "blue": {"Points": [{"co": {"X": 1, "Y": 255}, "handle_left": {"X": 0.5, "Y": 1}, "handle_right": {"X": 0.5, "Y": 0}, "handle_type": 0, "interpolation": 0}]}, "green": {"Points": [{"co": {"X": 1, "Y": 123}, "handle_left": {"X": 0.5, "Y": 1}, "handle_right": {"X": 0.5, "Y": 0}, "handle_type": 0, "interpolation": 0}]}, "red": {"Points": [{"co": {"X": 1, "Y": 0}, "handle_left": {"X": 0.5, "Y": 1}, "handle_right": {"X": 0.5, "Y": 0}, "handle_type": 0, "interpolation": 0}]}}, "waveform": false, "file_id": "DD4MNHBLLW", "title": "templates_test_title.svg", "image": "/home/preeti/.openshot_qt/thumbnail/DD4MNHBLLW.png"}, "partial": false, "old_values": [{"alpha": {"Points": [{"co": {"X": 1, "Y": 1}, "interpolation": 2}]}, "anchor": 0, "channel_filter": {"Points": [{"co": {"X": 1, "Y": -1}, "interpolation": 2}]}, "channel_mapping": {"Points": [{"co": {"X": 1, "Y": -1}, "interpolation": 2}]}, "crop_height": {"Points": [{"co": {"X": 1, "Y": -1}, "interpolation": 2}]}, "crop_width": {"Points": [{"co": {"X": 1, "Y": -1}, "interpolation": 2}]}, "crop_x": {"Points": [{"co": {"X": 1, "Y": 0}, "interpolation": 2}]}, "crop_y": {"Points": [{"co": {"X": 1, "Y": 0}, "interpolation": 2}]}, "display": 0, "duration": 12.5, "effects": [], "end": 12.5, "gravity": 4, "has_audio": {"Points": [{"co": {"X": 1, "Y": -1}, "interpolation": 2}]}, "has_video": {"Points": [{"co": {"X": 1, "Y": -1}, "interpolation": 2}]}, "id": "1YFRNRR7VC", "layer": 3, "location_x": {"Points": [{"co": {"X": 1, "Y": 0}, "interpolation": 2}]}, "location_y": {"Points": [{"co": {"X": 1, "Y": 0}, "interpolation": 2}]}, "mixing": 0, "perspective_c1_x": {"Points": [{"co": {"X": 1, "Y": -1}, "interpolation": 2}]}, "perspective_c1_y": {"Points": [{"co": {"X": 1, "Y": -1}, "interpolation": 2}]}, "perspective_c2_x": {"Points": [{"co": {"X": 1, "Y": -1}, "interpolation": 2}]}, "perspective_c2_y": {"Points": [{"co": {"X": 1, "Y": -1}, "interpolation": 2}]}, "perspective_c3_x": {"Points": [{"co": {"X": 1, "Y": -1}, "interpolation": 2}]}, "perspective_c3_y": {"Points": [{"co": {"X": 1, "Y": -1}, "interpolation": 2}]}, "perspective_c4_x": {"Points": [{"co": {"X": 1, "Y": -1}, "interpolation": 2}]}, "perspective_c4_y": {"Points": [{"co": {"X": 1, "Y": -1}, "interpolation": 2}]}, "position": 0, "reader": {"acodec": "", "audio_bit_rate": 0, "audio_stream_index": -1, "audio_timebase": {"den": 1, "num": 1}, "channel_layout": 4, "channels": 0, "display_ratio": {"den": 1, "num": 4}, "duration": 12.5, "file_size": "921260", "fps": {"den": 1, "num": 8}, "has_audio": false, "has_single_image": false, "has_video": true, "height": 150, "interlaced_frame": false, "metadata": {}, "path": "/home/preeti/Documents/DT/TCI_few_views/videos/potato/potato_templates_and_test_z.avi", "pixel_format": 12, "pixel_ratio": {"den": 1, "num": 1}, "sample_rate": 0, "top_field_first": true, "type": "FFmpegReader", "vcodec": "mjpeg", "video_bit_rate": 73700, "video_length": "100", "video_stream_index": 0, "video_timebase": {"den": 8, "num": 1}, "width": 600}, "rotation": {"Points": [{"co": {"X": 1, "Y": 0}, "interpolation": 2}]}, "scale": 1, "scale_x": {"Points": [{"co": {"X": 1, "Y": 1}, "interpolation": 2}]}, "scale_y": {"Points": [{"co": {"X": 1, "Y": 1}, "interpolation": 2}]}, "shear_x": {"Points": [{"co": {"X": 1, "Y": 0}, "interpolation": 2}]}, "shear_y": {"Points": [{"co": {"X": 1, "Y": 0}, "interpolation": 2}]}, "start": 0, "time": {"Points": [{"co": {"X": 1, "Y": 1}, "interpolation": 2}]}, "volume": {"Points": [{"co": {"X": 1, "Y": 1}, "interpolation": 2}]}, "wave_color": {"alpha": {"Points": [{"co": {"X": 1, "Y": 255}, "handle_left": {"X": 0.5, "Y": 1}, "handle_right": {"X": 0.5, "Y": 0}, "handle_type": 0, "interpolation": 0}]}, "blue": {"Points": [{"co": {"X": 1, "Y": 255}, "handle_left": {"X": 0.5, "Y": 1}, "handle_right": {"X": 0.5, "Y": 0}, "handle_type": 0, "interpolation": 0}]}, "green": {"Points": [{"co": {"X": 1, "Y": 123}, "handle_left": {"X": 0.5, "Y": 1}, "handle_right": {"X": 0.5, "Y": 0}, "handle_type": 0, "interpolation": 0}]}, "red": {"Points": [{"co": {"X": 1, "Y": 0}, "handle_left": {"X": 0.5, "Y": 1}, "handle_right": {"X": 0.5, "Y": 0}, "handle_type": 0, "interpolation": 0}]}}, "waveform": false, "file_id": "ZZ42TIZ5GB", "title": "potato_templates_and_test_z.avi", "image": "/home/preeti/.openshot_qt/thumbnail/ZZ42TIZ5GB.png"}]}, {"type": "update", "key": ["clips", {"id": "6KMZQLFB2P"}], "value": {"id": "6KMZQLFB2P", "layer": 4, "position": 1.12, "image": "/home/preeti/.openshot_qt/thumbnail/DD4MNHBLLW.png", "start": 0, "end": 10}, "partial": false, "old_values": {"alpha": {"Points": [{"co": {"X": 1, "Y": 1}, "interpolation": 2}]}, "anchor": 0, "channel_filter": {"Points": [{"co": {"X": 1, "Y": -1}, "interpolation": 2}]}, "channel_mapping": {"Points": [{"co": {"X": 1, "Y": -1}, "interpolation": 2}]}, "crop_height": {"Points": [{"co": {"X": 1, "Y": -1}, "interpolation": 2}]}, "crop_width": {"Points": [{"co": {"X": 1, "Y": -1}, "interpolation": 2}]}, "crop_x": {"Points": [{"co": {"X": 1, "Y": 0}, "interpolation": 2}]}, "crop_y": {"Points": [{"co": {"X": 1, "Y": 0}, "interpolation": 2}]}, "display": 0, "duration": 86400.0, "effects": [], "end": 10.0, "gravity": 4, "has_audio": {"Points": [{"co": {"X": 1, "Y": -1}, "interpolation": 2}]}, "has_video": {"Points": [{"co": {"X": 1, "Y": -1}, "interpolation": 2}]}, "id": "6KMZQLFB2P", "layer": 4, "location_x": {"Points": [{"co": {"X": 1, "Y": 0}, "interpolation": 2}]}, "location_y": {"Points": [{"co": {"X": 1, "Y": 0}, "interpolation": 2}]}, "mixing": 0, "perspective_c1_x": {"Points": [{"co": {"X": 1, "Y": -1}, "interpolation": 2}]}, "perspective_c1_y": {"Points": [{"co": {"X": 1, "Y": -1}, "interpolation": 2}]}, "perspective_c2_x": {"Points": [{"co": {"X": 1, "Y": -1}, "interpolation": 2}]}, "perspective_c2_y": {"Points": [{"co": {"X": 1, "Y": -1}, "interpolation": 2}]}, "perspective_c3_x": {"Points": [{"co": {"X": 1, "Y": -1}, "interpolation": 2}]}, "perspective_c3_y": {"Points": [{"co": {"X": 1, "Y": -1}, "interpolation": 2}]}, "perspective_c4_x": {"Points": [{"co": {"X": 1, "Y": -1}, "interpolation": 2}]}, "perspective_c4_y": {"Points": [{"co": {"X": 1, "Y": -1}, "interpolation": 2}]}, "position": 0.32, "reader": {"acodec": "", "audio_bit_rate": 0, "audio_stream_index": -1, "audio_timebase": {"den": 1, "num": 1}, "channel_layout": 4, "channels": 0, "display_ratio": {"den": 9, "num": 16}, "duration": 86400.0, "file_size": "8294400", "fps": {"den": 1, "num": 30}, "has_audio": false, "has_single_image": true, "has_video": true, "height": 1080, "interlaced_frame": false, "metadata": {}, "path": "/home/preeti/Documents/DT/TCI_few_views/videos/potato/templates_test_title.svg", "pixel_format": -1, "pixel_ratio": {"den": 1, "num": 1}, "sample_rate": 0, "top_field_first": true, "type": "QtImageReader", "vcodec": "", "video_bit_rate": 0, "video_length": "2592000", "video_stream_index": -1, "video_timebase": {"den": 30, "num": 1}, "width": 1920}, "rotation": {"Points": [{"co": {"X": 1, "Y": 0}, "interpolation": 2}]}, "scale": 1, "scale_x": {"Points": [{"co": {"X": 1, "Y": 1}, "interpolation": 2}]}, "scale_y": {"Points": [{"co": {"X": 1, "Y": 1}, "interpolation": 2}]}, "shear_x": {"Points": [{"co": {"X": 1, "Y": 0}, "interpolation": 2}]}, "shear_y": {"Points": [{"co": {"X": 1, "Y": 0}, "interpolation": 2}]}, "start": 0, "time": {"Points": [{"co": {"X": 1, "Y": 1}, "interpolation": 2}]}, "volume": {"Points": [{"co": {"X": 1, "Y": 1}, "interpolation": 2}]}, "wave_color": {"alpha": {"Points": [{"co": {"X": 1, "Y": 255}, "handle_left": {"X": 0.5, "Y": 1}, "handle_right": {"X": 0.5, "Y": 0}, "handle_type": 0, "interpolation": 0}]}, "blue": {"Points": [{"co": {"X": 1, "Y": 255}, "handle_left": {"X": 0.5, "Y": 1}, "handle_right": {"X": 0.5, "Y": 0}, "handle_type": 0, "interpolation": 0}]}, "green": {"Points": [{"co": {"X": 1, "Y": 123}, "handle_left": {"X": 0.5, "Y": 1}, "handle_right": {"X": 0.5, "Y": 0}, "handle_type": 0, "interpolation": 0}]}, "red": {"Points": [{"co": {"X": 1, "Y": 0}, "handle_left": {"X": 0.5, "Y": 1}, "handle_right": {"X": 0.5, "Y": 0}, "handle_type": 0, "interpolation": 0}]}}, "waveform": false, "file_id": "DD4MNHBLLW", "title": "templates_test_title.svg", "image": "/home/preeti/.openshot_qt/thumbnail/DD4MNHBLLW.png"}}, {"type": "update", "key": ["clips", {"id": "6KMZQLFB2P"}], "value": {"id": "6KMZQLFB2P", "layer": 4, "position": 0, "image": "/home/preeti/.openshot_qt/thumbnail/DD4MNHBLLW.png", "start": 0, "end": 10}, "partial": false, "old_values": {"alpha": {"Points": [{"co": {"X": 1, "Y": 1}, "interpolation": 2}]}, "anchor": 0, "channel_filter": {"Points": [{"co": {"X": 1, "Y": -1}, "interpolation": 2}]}, "channel_mapping": {"Points": [{"co": {"X": 1, "Y": -1}, "interpolation": 2}]}, "crop_height": {"Points": [{"co": {"X": 1, "Y": -1}, "interpolation": 2}]}, "crop_width": {"Points": [{"co": {"X": 1, "Y": -1}, "interpolation": 2}]}, "crop_x": {"Points": [{"co": {"X": 1, "Y": 0}, "interpolation": 2}]}, "crop_y": {"Points": [{"co": {"X": 1, "Y": 0}, "interpolation": 2}]}, "display": 0, "duration": 86400.0, "effects": [], "end": 10, "gravity": 4, "has_audio": {"Points": [{"co": {"X": 1, "Y": -1}, "interpolation": 2}]}, "has_video": {"Points": [{"co": {"X": 1, "Y": -1}, "interpolation": 2}]}, "id": "6KMZQLFB2P", "layer": 4, "location_x": {"Points": [{"co": {"X": 1, "Y": 0}, "interpolation": 2}]}, "location_y": {"Points": [{"co": {"X": 1, "Y": 0}, "interpolation": 2}]}, "mixing": 0, "perspective_c1_x": {"Points": [{"co": {"X": 1, "Y": -1}, "interpolation": 2}]}, "perspective_c1_y": {"Points": [{"co": {"X": 1, "Y": -1}, "interpolation": 2}]}, "perspective_c2_x": {"Points": [{"co": {"X": 1, "Y": -1}, "interpolation": 2}]}, "perspective_c2_y": {"Points": [{"co": {"X": 1, "Y": -1}, "interpolation": 2}]}, "perspective_c3_x": {"Points": [{"co": {"X": 1, "Y": -1}, "interpolation": 2}]}, "perspective_c3_y": {"Points": [{"co": {"X": 1, "Y": -1}, "interpolation": 2}]}, "perspective_c4_x": {"Points": [{"co": {"X": 1, "Y": -1}, "interpolation": 2}]}, "perspective_c4_y": {"Points": [{"co": {"X": 1, "Y": -1}, "interpolation": 2}]}, "position": 1.12, "reader": {"acodec": "", "audio_bit_rate": 0, "audio_stream_index": -1, "audio_timebase": {"den": 1, "num": 1}, "channel_layout": 4, "channels": 0, "display_ratio": {"den": 9, "num": 16}, "duration": 86400.0, "file_size": "8294400", "fps": {"den": 1, "num": 30}, "has_audio": false, "has_single_image": true, "has_video": true, "height": 1080, "interlaced_frame": false, "metadata": {}, "path": "/home/preeti/Documents/DT/TCI_few_views/videos/potato/templates_test_title.svg", "pixel_format": -1, "pixel_ratio": {"den": 1, "num": 1}, "sample_rate": 0, "top_field_first": true, "type": "QtImageReader", "vcodec": "", "video_bit_rate": 0, "video_length": "2592000", "video_stream_index": -1, "video_timebase": {"den": 30, "num": 1}, "width": 1920}, "rotation": {"Points": [{"co": {"X": 1, "Y": 0}, "interpolation": 2}]}, "scale": 1, "scale_x": {"Points": [{"co": {"X": 1, "Y": 1}, "interpolation": 2}]}, "scale_y": {"Points": [{"co": {"X": 1, "Y": 1}, "interpolation": 2}]}, "shear_x": {"Points": [{"co": {"X": 1, "Y": 0}, "interpolation": 2}]}, "shear_y": {"Points": [{"co": {"X": 1, "Y": 0}, "interpolation": 2}]}, "start": 0, "time": {"Points": [{"co": {"X": 1, "Y": 1}, "interpolation": 2}]}, "volume": {"Points": [{"co": {"X": 1, "Y": 1}, "interpolation": 2}]}, "wave_color": {"alpha": {"Points": [{"co": {"X": 1, "Y": 255}, "handle_left": {"X": 0.5, "Y": 1}, "handle_right": {"X": 0.5, "Y": 0}, "handle_type": 0, "interpolation": 0}]}, "blue": {"Points": [{"co": {"X": 1, "Y": 255}, "handle_left": {"X": 0.5, "Y": 1}, "handle_right": {"X": 0.5, "Y": 0}, "handle_type": 0, "interpolation": 0}]}, "green": {"Points": [{"co": {"X": 1, "Y": 123}, "handle_left": {"X": 0.5, "Y": 1}, "handle_right": {"X": 0.5, "Y": 0}, "handle_type": 0, "interpolation": 0}]}, "red": {"Points": [{"co": {"X": 1, "Y": 0}, "handle_left": {"X": 0.5, "Y": 1}, "handle_right": {"X": 0.5, "Y": 0}, "handle_type": 0, "interpolation": 0}]}}, "waveform": false, "file_id": "DD4MNHBLLW", "title": "templates_test_title.svg", "image": "/home/preeti/.openshot_qt/thumbnail/DD4MNHBLLW.png"}}, {"type": "update", "key": ["clips", {"id": "6KMZQLFB2P"}], "value": {"id": "6KMZQLFB2P", "layer": 4, "position": 0, "image": "/home/preeti/.openshot_qt/thumbnail/DD4MNHBLLW.png", "start": 0, "end": 12.566666666666666}, "partial": false, "old_values": {"alpha": {"Points": [{"co": {"X": 1, "Y": 1}, "interpolation": 2}]}, "anchor": 0, "channel_filter": {"Points": [{"co": {"X": 1, "Y": -1}, "interpolation": 2}]}, "channel_mapping": {"Points": [{"co": {"X": 1, "Y": -1}, "interpolation": 2}]}, "crop_height": {"Points": [{"co": {"X": 1, "Y": -1}, "interpolation": 2}]}, "crop_width": {"Points": [{"co": {"X": 1, "Y": -1}, "interpolation": 2}]}, "crop_x": {"Points": [{"co": {"X": 1, "Y": 0}, "interpolation": 2}]}, "crop_y": {"Points": [{"co": {"X": 1, "Y": 0}, "interpolation": 2}]}, "display": 0, "duration": 86400.0, "effects": [], "end": 10, "gravity": 4, "has_audio": {"Points": [{"co": {"X": 1, "Y": -1}, "interpolation": 2}]}, "has_video": {"Points": [{"co": {"X": 1, "Y": -1}, "interpolation": 2}]}, "id": "6KMZQLFB2P", "layer": 4, "location_x": {"Points": [{"co": {"X": 1, "Y": 0}, "interpolation": 2}]}, "location_y": {"Points": [{"co": {"X": 1, "Y": 0}, "interpolation": 2}]}, "mixing": 0, "perspective_c1_x": {"Points": [{"co": {"X": 1, "Y": -1}, "interpolation": 2}]}, "perspective_c1_y": {"Points": [{"co": {"X": 1, "Y": -1}, "interpolation": 2}]}, "perspective_c2_x": {"Points": [{"co": {"X": 1, "Y": -1}, "interpolation": 2}]}, "perspective_c2_y": {"Points": [{"co": {"X": 1, "Y": -1}, "interpolation": 2}]}, "perspective_c3_x": {"Points": [{"co": {"X": 1, "Y": -1}, "interpolation": 2}]}, "perspective_c3_y": {"Points": [{"co": {"X": 1, "Y": -1}, "interpolation": 2}]}, "perspective_c4_x": {"Points": [{"co": {"X": 1, "Y": -1}, "interpolation": 2}]}, "perspective_c4_y": {"Points": [{"co": {"X": 1, "Y": -1}, "interpolation": 2}]}, "position": 0, "reader": {"acodec": "", "audio_bit_rate": 0, "audio_stream_index": -1, "audio_timebase": {"den": 1, "num": 1}, "channel_layout": 4, "channels": 0, "display_ratio": {"den": 9, "num": 16}, "duration": 86400.0, "file_size": "8294400", "fps": {"den": 1, "num": 30}, "has_audio": false, "has_single_image": true, "has_video": true, "height": 1080, "interlaced_frame": false, "metadata": {}, "path": "/home/preeti/Documents/DT/TCI_few_views/videos/potato/templates_test_title.svg", "pixel_format": -1, "pixel_ratio": {"den": 1, "num": 1}, "sample_rate": 0, "top_field_first": true, "type": "QtImageReader", "vcodec": "", "video_bit_rate": 0, "video_length": "2592000", "video_stream_index": -1, "video_timebase": {"den": 30, "num": 1}, "width": 1920}, "rotation": {"Points": [{"co": {"X": 1, "Y": 0}, "interpolation": 2}]}, "scale": 1, "scale_x": {"Points": [{"co": {"X": 1, "Y": 1}, "interpolation": 2}]}, "scale_y": {"Points": [{"co": {"X": 1, "Y": 1}, "interpolation": 2}]}, "shear_x": {"Points": [{"co": {"X": 1, "Y": 0}, "interpolation": 2}]}, "shear_y": {"Points": [{"co": {"X": 1, "Y": 0}, "interpolation": 2}]}, "start": 0, "time": {"Points": [{"co": {"X": 1, "Y": 1}, "interpolation": 2}]}, "volume": {"Points": [{"co": {"X": 1, "Y": 1}, "interpolation": 2}]}, "wave_color": {"alpha": {"Points": [{"co": {"X": 1, "Y": 255}, "handle_left": {"X": 0.5, "Y": 1}, "handle_right": {"X": 0.5, "Y": 0}, "handle_type": 0, "interpolation": 0}]}, "blue": {"Points": [{"co": {"X": 1, "Y": 255}, "handle_left": {"X": 0.5, "Y": 1}, "handle_right": {"X": 0.5, "Y": 0}, "handle_type": 0, "interpolation": 0}]}, "green": {"Points": [{"co": {"X": 1, "Y": 123}, "handle_left": {"X": 0.5, "Y": 1}, "handle_right": {"X": 0.5, "Y": 0}, "handle_type": 0, "interpolation": 0}]}, "red": {"Points": [{"co": {"X": 1, "Y": 0}, "handle_left": {"X": 0.5, "Y": 1}, "handle_right": {"X": 0.5, "Y": 0}, "handle_type": 0, "interpolation": 0}]}}, "waveform": false, "file_id": "DD4MNHBLLW", "title": "templates_test_title.svg", "image": "/home/preeti/.openshot_qt/thumbnail/DD4MNHBLLW.png"}}], "redo": []}, "version": {"openshot-qt": "2.4.3", "libopenshot": "0.2.2"}}